<?xml version="1.0" standalone="no"?>
<!DOCTYPE svg PUBLIC "-//W3C//DTD SVG 1.1//EN" "http://www.w3.org/Graphics/SVG/1.1/DTD/svg11.dtd" >
<svg xmlns="http://www.w3.org/2000/svg">
  <metadata>Created by iconfont</metadata>
  <defs>
  <font id="iconfont" horiz-adv-x="1024">
    <font-face
      font-family="iconfont"
      font-weight="400"
      font-stretch="normal"
      units-per-em="1024"
      ascent="896"
      descent="-128"
    />
      <missing-glyph />
      
      <glyph glyph-name="liebiao" unicode="&#60523;" d="M64 437.33333333h352V789.33333333H64v-352z m64 288h224v-224H128V725.33333333zM64-10.66666667000004h352V341.33333332999996H64v-352z m64 288h224v-224H128v224zM526.848 693.33333333H928a32 32 0 1 1 0 64H526.848a32 32 0 0 1 0-64zM928 309.33333332999996H526.848a32 32 0 1 1 0-64H928a32 32 0 1 1 0 64zM928 533.33333333H526.848a32 32 0 0 1 0-64H928a32 32 0 1 1 0 64zM928 85.33333332999996H526.848a32 32 0 1 1 0-64H928a32 32 0 1 1 0 64z"  horiz-adv-x="1024" />
      
      <glyph glyph-name="name-card" unicode="&#59558;" d="M409.5 344.4C443 374.20000000000005 464 418 463.2 466.6c-1.4 87.8-74.3 158.5-162 157.4-87.4-1.1-157.9-72.3-157.9-160 0-47.6 20.8-90.4 53.8-119.7 3.8-3.4 3.5-9.3-0.5-12.4-42.1-32.2-69.3-82.9-69.3-140 0-17.7 14.3-32 32-32h288c17.7 0 32 14.3 32 32 0 57.1-27.2 107.8-69.3 140-4.1 3.2-4.3 9.1-0.5 12.5zM207.2 464c0 52.9 43.1 96 96 96s96-43.1 96-96-43.1-96-96-96-96 43.1-96 96z m-0.1-240c-5.7 0-9.6 5.8-7.4 11.1 5.6 13.3 13.7 25.6 24.2 36.1 21.2 21.2 49.3 32.8 79.2 32.8s58-11.6 79.2-32.8c10.5-10.5 18.7-22.8 24.2-36.1 2.2-5.3-1.6-11.1-7.4-11.1h-192zM960 768H64c-35.3 0-64-28.7-64-64v-640c0-35.3 28.7-64 64-64h160c8.8 0 16 7.2 16 16v12c0 2.2 1.8 4 4 4h151c2.2 0 4-1.8 4-4v-12c0-8.8 7.2-16 16-16h193c8.8 0 16 7.2 16 16v12c0 2.2 1.8 4 4 4h152c2.2 0 4-1.8 4-4v-12c0-8.8 7.2-16 16-16h160c35.3 0 64 28.7 64 64V704c0 35.3-28.7 64-64 64z m0-688c0-8.8-7.2-16-16-16h-92c-2.2 0-4 1.8-4 4v12c0 8.8-7.2 16-16 16H576c-8.8 0-16-7.2-16-16v-12c0-2.2-1.8-4-4-4h-88c-2.2 0-4 1.8-4 4v12c0 8.8-7.2 16-16 16H192c-8.8 0-16-7.2-16-16v-12c0-2.2-1.8-4-4-4H80c-8.8 0-16 7.2-16 16V688c0 8.8 7.2 16 16 16h864c8.8 0 16-7.2 16-16v-608zM888 464H584c-4.4 0-8 3.6-8 8v48c0 4.4 3.6 8 8 8h304c4.4 0 8-3.6 8-8v-48c0-4.4-3.6-8-8-8zM888 336H584c-4.4 0-8 3.6-8 8v48c0 4.4 3.6 8 8 8h304c4.4 0 8-3.6 8-8v-48c0-4.4-3.6-8-8-8zM888 208H584c-4.4 0-8 3.6-8 8v48c0 4.4 3.6 8 8 8h304c4.4 0 8-3.6 8-8v-48c0-4.4-3.6-8-8-8z"  horiz-adv-x="1024" />
      
      <glyph glyph-name="tree-file" unicode="&#59272;" d="M659.968 896l236.032-265.8304V-81.40800000000002c0-25.7024-20.224-46.5408-45.1584-46.5408H173.1584a45.8752 45.8752 0 0 0-45.1584 46.592V849.408c0 25.7536 20.224 46.592 45.1584 46.592h486.7584z m-29.9008-69.8368H195.7888v-884.3264h632.4224V571.2896000000001h-144.8448c-36.096-1.4336-64 4.4032-83.968 20.1728-23.2448 18.3296-31.744 49.5616-30.6176 91.1872v143.36h61.4912l-0.2048 0.1536z m-70.7584-674.8672c18.688 0 33.8944-15.6672 33.8944-34.9184a34.4064 34.4064 0 0 0-33.8944-34.9184H297.4208a34.4064 34.4064 0 0 0-33.8944 34.9184c0 19.2512 15.1552 34.9184 33.8944 34.9184h261.888z m156.416 186.1632c18.688 0 33.8944-15.616 33.8944-34.9184a34.4064 34.4064 0 0 0-33.8944-34.9184h-418.304a34.4064 34.4064 0 0 0-33.8944 34.9184c0 19.3024 15.1552 34.9184 33.8944 34.9184h418.304z m-156.416 186.1632c18.688 0 33.8944-15.616 33.8944-34.9184a34.4064 34.4064 0 0 0-33.8944-34.8672H297.4208a34.4064 34.4064 0 0 0-33.8944 34.8672c0 19.3024 15.1552 34.9184 33.8944 34.9184h261.888z m74.752 298.1376l2.4576-3.0208v-137.0112c-0.6144-22.4768 2.4064-33.5872 4.096-34.816 4.864-3.8912 18.3296-6.7072 41.472-5.8368h112.2816l19.2-21.7088 14.6432-16.3328-194.1504 218.7264z"  horiz-adv-x="1024" />
      
      <glyph glyph-name="et-vehicle" unicode="&#59893;" d="M744 644.9a40.1 40.1 0 0 1-31.3 15.1H640v68a40 40 0 0 1-40 40H104a40 40 0 0 1-40-40v-560a40 40 0 0 1 40-40h88a128 128 0 0 1 256 0h188a128 128 0 0 1 256 0h28a40 40 0 0 1 40 40V359.5a39.9 39.9 0 0 1-8.7 24.9zM697.3 588l95.5-120H640V588zM320 72a56 56 0 1 0 56 56 56 56 0 0 0-56-56z m248 128H425.8a127.9 127.9 0 0 1-211.6 0H136V696h432v-496z m-120.1-67.6z m-0.3 5.5z m-0.4 4.4c0 0.3-0.1 0.6-0.1 1s0.1-0.7 0.1-1z m-0.7 5.3z m-0.7 4.3a2.9 2.9 0 0 0-0.2 0.9 2.9 2.9 0 0 1 0.2-0.9z m-1.1 5.2a0.1 0.1 0 0 1-0.1 0.1 0.1 0.1 0 0 0 0.1-0.1z m-1.1 4.2c-0.1 0.3-0.1 0.5-0.2 0.8s0.1-0.5 0.2-0.8z m-1.4 5a0.1 0.1 0 0 1-0.1 0.1 0.1 0.1 0 0 0 0.1-0.1z m-1.4 4.1a2.5 2.5 0 0 0-0.2 0.7 2.5 2.5 0 0 1 0.2-0.7z m-1.8 4.8z m-1.7 4.1l-0.2 0.5z m-4.1 8.5c-0.1 0.1-0.1 0.3-0.2 0.4s0.1-0.3 0.2-0.4z m-4.7 8.1l-0.2 0.3z m-236.4-63.5z m0.3 5.5z m0.4 4.4c0 0.3 0.1 0.6 0.1 1s-0.1-0.7-0.1-1z m0.7 5.3z m0.7 4.3a2.9 2.9 0 0 1 0.2 0.9 2.9 2.9 0 0 0-0.2-0.9z m1.1 5.2a0.1 0.1 0 0 0 0.1 0.1 0.1 0.1 0 0 1-0.1-0.1z m1.1 4.2c0.1 0.3 0.1 0.5 0.2 0.8s-0.1-0.5-0.2-0.8z m1.4 5a0.1 0.1 0 0 0 0.1 0.1 0.1 0.1 0 0 1-0.1-0.1z m1.4 4.1a2.5 2.5 0 0 1 0.2 0.7 2.5 2.5 0 0 0-0.2-0.7z m1.8 4.8z m1.7 4.1l0.2 0.5z m4.1 8.5c0.1 0.1 0.1 0.3 0.2 0.4s-0.1-0.3-0.2-0.4z m4.7 8.1l0.2 0.3zM764 72a56 56 0 1 0 56 56 56 56 0 0 0-56-56z m0 184a127.7 127.7 0 0 1-105.8-56H640V404h203.7l44.3-55.7V200h-18.2A127.7 127.7 0 0 1 764 256z m-123.6-94.7c0.1 0.3 0.1 0.5 0.2 0.8s-0.1-0.5-0.2-0.8z m1.4 5a0.1 0.1 0 0 0 0.1 0.1 0.1 0.1 0 0 1-0.1-0.1z m1.4 4.1a2.5 2.5 0 0 1 0.2 0.7 2.5 2.5 0 0 0-0.2-0.7z m1.8 4.8z m1.7 4.1l0.2 0.5z m4.1 8.5c0.1 0.1 0.1 0.3 0.2 0.4s-0.1-0.3-0.2-0.4z m4.7 8.1l0.2 0.3z m232.1-34.6c-0.1 0.3-0.1 0.5-0.2 0.8s0.1-0.5 0.2-0.8z m-1.4 5a0.1 0.1 0 0 1-0.1 0.1 0.1 0.1 0 0 0 0.1-0.1z m-1.4 4.1a2.5 2.5 0 0 0-0.2 0.7 2.5 2.5 0 0 1 0.2-0.7z m-1.8 4.8z m-1.7 4.1l-0.2 0.5z m-4.1 8.5c-0.1 0.1-0.1 0.3-0.2 0.4s0.1-0.3 0.2-0.4z m-4.7 8.1l-0.2 0.3z m19.4-62.4z m-3.3 23.7a0.1 0.1 0 0 0 0.1-0.1 0.1 0.1 0 0 1-0.1 0.1z m1-4.4a2.9 2.9 0 0 1 0.2-0.9 2.9 2.9 0 0 0-0.2 0.9z m0.9-5.1z m0.6-4.4c0-0.4 0.1-0.7 0.1-1s-0.1 0.6-0.1 1z m0.5-5.3z"  horiz-adv-x="1024" />
      
      <glyph glyph-name="tree-file2" unicode="&#59274;" d="M286.293333 725.333333a106.730667 106.730667 0 0 0 97.557334 64h9.002666a106.666667 106.666667 0 0 0 97.856 64h42.581334a106.773333 106.773333 0 0 0 97.813333-64h9.045333a106.538667 106.538667 0 0 0 97.6-64H768a106.666667 106.666667 0 0 0 106.666667-106.709333v-597.248A106.752 106.752 0 0 0 768-85.33333300000004H256a106.666667 106.666667 0 0 0-106.666667 106.709333V618.624A106.752 106.752 0 0 0 256 725.333333h30.293333z m-6.784-85.333333H256c-11.733333 0-21.333333-9.6-21.333333-21.376v-597.248A21.333333 21.333333 0 0 1 256 0h512c11.733333 0 21.333333 9.6 21.333333 21.376V618.624A21.333333 21.333333 0 0 1 768 640h-23.509333c-9.962667-48.64-53.013333-85.333333-104.32-85.333333H383.829333a106.666667 106.666667 0 0 0-104.341333 85.333333zM426.666667 704h-42.816A21.546667 21.546667 0 0 1 362.666667 682.4533329999999v-20.906666c0-11.946667 9.557333-21.546667 21.184-21.546667h256.298666c11.498667 0 21.184 9.706667 21.184 21.546667v20.906666c0 11.946667-9.557333 21.546667-21.184 21.546667H597.333333a42.666667 42.666667 0 0 0-42.666666 42.666667c0 11.733333-9.6 21.333333-21.376 21.333333h-42.581334A21.290667 21.290667 0 0 1 469.333333 746.666667a42.666667 42.666667 0 0 0-42.666666-42.666667z m-64-320a42.666667 42.666667 0 1 0 0 85.333333h298.666666a42.666667 42.666667 0 1 0 0-85.333333H362.666667z m0-149.333333a42.666667 42.666667 0 1 0 0 85.333333h298.666666a42.666667 42.666667 0 1 0 0-85.333333H362.666667z m0-149.333334a42.666667 42.666667 0 1 0 0 85.333334h170.666666a42.666667 42.666667 0 1 0 0-85.333334h-170.666666z"  horiz-adv-x="1024" />
      
      <glyph glyph-name="file-pdf" unicode="&#59275;" d="M917.7088 529.7152h-26.3168l1.3824 96.768a23.7568 23.7568 0 0 1-6.144 15.2576L660.5312 889.1392A20.1216 20.1216 0 0 1 646.0416 896h-473.088a40.96 40.96 0 0 1-40.2944-40.1408v-326.144h-26.368c-14.592 0-28.672-6.0416-38.912-16.7936-10.3936-10.752-16.1792-25.344-16.1792-40.6016v-298.496c0-31.6416 24.6784-57.344 55.0912-57.344h26.368v-204.288A40.96 40.96 0 0 1 173.056-128h679.8336c21.248 0 39.936 18.0224 39.936 40.1408v204.288h24.9344c30.4128 0 55.0912 25.7536 55.0912 57.4464v298.496c0 15.1552-5.7856 29.7984-16.128 40.5504a53.9648 53.9648 0 0 1-38.912 16.7936zM202.24 825.4464h356.1472v-234.3424a20.48 20.48 0 0 1 5.632-14.1824c3.6352-3.7888 8.5504-5.888 13.6704-5.888h243.6608v-41.3184H202.24V825.4464z m0-882.8928v173.9264h619.1104v-173.9264H202.24zM629.2992 818.176l19.712-22.2208 132.096-146.0736 7.3216-8.8576h-135.0144c-10.24 0-16.64 1.6896-19.3536 5.12-2.7136 3.328-4.3008 8.704-4.7616 16.0256V818.176zM153.6 167.3216v307.2h98.2016c37.1712 0 61.44-1.536 72.704-4.608 17.408-4.608 31.9488-14.6432 43.6736-30.1056 11.6736-15.4112 17.5616-35.328 17.5616-59.8016 0-18.8416-3.3792-34.7136-10.1376-47.616-6.7584-12.8-15.36-22.8864-25.7536-30.208a88.064 88.064 0 0 0-31.744-14.592c-14.592-2.9184-35.7376-4.4032-63.4368-4.4032h-39.8848v-115.8656H153.6z m61.184 255.232v-87.1936h33.4848c24.1152 0 40.2432 1.6384 48.384 4.8128a40.2432 40.2432 0 0 1 26.0096 39.0144 39.9872 39.9872 0 0 1-9.728 27.648 42.1376 42.1376 0 0 1-24.576 13.6192c-7.2704 1.3824-21.9648 2.048-44.032 2.048h-29.5424z m206.848 51.968h111.8208c25.2416 0 44.4416-1.9456 57.7024-5.888 17.7664-5.2736 32.9728-14.7456 45.6704-28.2624 12.6464-13.568 22.3232-30.1568 28.928-49.7664 6.656-19.6608 9.9328-43.8272 9.9328-72.6016 0-25.2928-3.072-47.104-9.3184-65.3824-7.5776-22.3744-18.432-40.448-32.4608-54.272-10.5984-10.496-24.9344-18.688-43.008-24.576-13.4656-4.3008-31.5392-6.4512-54.1184-6.4512H421.632v307.2zM482.816 422.5536v-203.4688h45.6704c17.1008 0 29.44 0.9728 37.0176 2.9184 9.9328 2.56 18.176 6.7584 24.6784 12.8 6.5536 5.9904 11.9296 15.872 16.0256 29.6448 4.1472 13.7728 6.1952 32.512 6.1952 56.2688 0 23.7568-2.048 41.984-6.144 54.6816a70.5024 70.5024 0 0 1-17.408 29.7472 57.9584 57.9584 0 0 1-28.3136 14.4896c-8.5504 1.9456-25.2928 2.9184-50.176 2.9184H482.816z m231.0656-255.232v307.2H921.6v-51.968h-146.5344v-72.704h126.464v-51.968h-126.464v-130.56h-61.184z"  horiz-adv-x="1024" />
      
      <glyph glyph-name="line-reduce" unicode="&#59663;" d="M128 426.666667h768a42.666667 42.666667 0 1 0 0-85.333334H128a42.666667 42.666667 0 1 0 0 85.333334z"  horiz-adv-x="1024" />
      
      <glyph glyph-name="line-plus" unicode="&#59664;" d="M512 810.666667a42.666667 42.666667 0 0 0 42.666667-42.666667v-341.333333h341.333333a42.666667 42.666667 0 1 0 0-85.333334H554.666667v-341.333333a42.666667 42.666667 0 1 0-85.333334 0V341.33333300000004H128a42.666667 42.666667 0 1 0 0 85.333334h341.333333V768a42.666667 42.666667 0 0 0 42.666667 42.666667z"  horiz-adv-x="1024" />
      
      <glyph glyph-name="duijiangji" unicode="&#59268;" d="M514.076981 617.920204v44.184597c0 15.745857-17.60284 27.765747-33.350696 27.765747s-35.09668-12.01989-35.09668-27.765747v-44.162598h-38.505649v44.162598c0 15.745857-18.757829 28.456741-34.479686 28.456741-15.759856 0-33.952691-12.709884-33.952691-28.456741v-44.162598h-57.808473V733.035155h-18.966827V833.254242c0 15.672857-17.936837 28.443741-33.647694 28.443741-15.764856 0-34.823683-12.776884-34.823683-28.443741v-100.228087h-20.187816V608.42329h1.587986c-43.552603-18.452832-74.269323-61.534439-74.269323-111.515984v-188.102286c0-38.39965 18.219834-72.656338 46.381577-94.872135 0-0.233998-0.039-0.529995-0.039-0.741994V-6.971103c0-9.098917 1.020991-17.965836 2.949974-26.496758C162.053188-87.41137 210.572746-128 268.119222-128H466.310416c57.514476 0 106.027034 40.59363 118.216923 94.533139a120.288904 120.288904 0 0 1 2.955973 26.496758V213.190891c0 0.212998-0.028 0.507995-0.027999 0.741994 28.161743 22.214798 46.343578 56.472485 46.343577 94.872135V496.912306c0 66.066398-53.72751 120.205905-119.722909 121.007898z m32.399705-277.525472H186.754963V504.684235h359.721723V340.395732z m276.479481 443.025964c30.337724-31.907709 54.262506-68.289378 71.775346-109.148006 17.51184-40.857628 27.066753-83.918235 28.664739-129.181823 0.311997-6.345942-1.926982-11.794893-6.722939-16.346851-4.067963-3.859965-8.75692-5.837947-14.069872-5.934946l-1.427987 0.036c-5.864947 0.150999-10.839901 2.375978-14.930864 6.679939-3.863965 4.062963-5.845947 8.74792-5.939946 14.053872-1.430987 39.886637-9.86791 77.87029-25.312769 113.946962-15.442859 36.079671-36.523667 68.171379-63.245424 96.275123-26.722757 28.104744-57.719474 50.785537-92.991153 68.04738-35.270679 17.262843-72.806337 27.629748-112.602974 31.104716-5.299952 0.367997-9.87991 2.584976-13.743874 6.64994-4.553959 4.789956-6.513941 10.347906-5.873947 16.667848 0.369997 5.294952 2.587976 9.87191 6.655939 13.730875 4.794956 4.551959 10.357906 6.506941 16.683848 5.869946 45.253588-4.010963 87.8272-15.777856 127.720837-35.296678 39.892637-19.517822 75.011317-45.233588 105.36104-77.153297zM669.378566 638.641015c13.429878-14.125871 22.321797-30.625721 26.676757-49.507549 0.846992-3.823965 0.727993-7.562931-0.347997-11.217898a20.930809 20.930809 0 0 0-5.767947-9.417914c-2.766975-2.625976-6.064945-4.36396-9.89391-5.205953-1.908983-0.427996-3.735966-0.619994-5.47995-0.575994-5.859947 0.149999-10.877901 2.419978-15.047863 6.805938-2.776975 2.920973-4.554958 6.176944-5.336951 9.765911-2.719975 11.476895-8.055927 21.397805-16.012855 29.764728-8.033927 8.449923-17.711839 14.32087-29.034735 17.61284-3.935964 1.206989-7.179935 3.149971-9.729911 5.831947-5.633949 5.923946-7.359933 12.859883-5.174953 20.80281 1.041991 3.775966 2.944973 6.976936 5.711948 9.602913 5.928946 5.626949 12.869883 7.351933 20.82081 5.169953 18.891828-5.403951 35.09168-15.209861 48.599557-29.415732l0.018-0.016zM740.387919 705.464406c18.68783-19.653821 33.620694-41.862619 44.798592-66.625393 11.176898-24.766774 17.756838-50.959536 19.73382-78.579284 0.538995-6.746939-1.669985-12.471886-6.62094-17.171844-3.733966-3.543968-8.148926-5.48795-13.243879-5.832946-1.11699-0.133999-1.835983-0.190998-2.14798-0.173999-5.863947 0.151999-10.840901 2.376978-14.932864 6.679939-3.625967 3.813965-5.611949 8.265925-5.957946 13.355879-1.641985 22.540795-7.037936 43.996599-16.186853 64.357413-9.149917 20.364814-21.327806 38.541649-36.535667 54.536503-15.209861 15.997854-32.756702 29.080735-52.64152 39.255643-19.884819 10.173907-41.052626 16.656848-63.501421 19.454822-5.059954 0.595995-9.369915 2.764975-12.926883 6.504941-4.713957 4.957955-6.62294 10.786902-5.730947 17.487841 0.595995 5.053954 2.767975 9.357915 6.51294 12.911882 4.962955 4.710957 10.797902 6.61994 17.503841 5.726948 27.42975-3.30797 53.273515-11.217898 77.534293-23.721784 24.259779-12.508886 45.695584-28.54974 64.302414-48.119561l0.042-0.047z"  horiz-adv-x="1024" />
      
      <glyph glyph-name="water-event" unicode="&#59269;" d="M888.02468133-35.23800285000004H136.06958405a75.51100423 75.51100423 0 0 0-75.41673882 75.41673885v616.52517515a75.41673883 75.41673883 0 0 0 75.41673882 75.41673884h150.24726473v-90.27384965h90.27384965v90.254702H647.44759691v-90.27384966h90.31067205v90.25470199h150.26641237a75.41673883 75.41673883 0 0 0 75.41673885-75.41526594v-616.52664806a75.51100423 75.51100423 0 0 0-75.41673885-75.37844352zM210.39196052 223.91083833000005v-94.26981887h433.64293431V223.91083833000005z m0 150.8320048v-94.2698189h603.32801913v94.2698189z m0 150.83200477v-94.26981888h490.20512021V525.5748479zM286.33746933 822.43132206h90.27237676v-90.27384964h-90.27384965zM647.46674454 822.43132206h90.27384965v-90.27384964h-90.27384965z"  horiz-adv-x="1024" />
      
      <glyph glyph-name="water-point" unicode="&#59270;" d="M942.55177829 68.46017990999997a28.3490936 28.3490936 0 0 1-28.13290572-25.41178628c-19.70675611-36.1486867-62.29059255-61.25237285-111.77690706-61.25237285-48.12057663 0-89.73221484 23.72888652-110.11213084 58.28788021a28.32061377 28.32061377 0 0 1-8.8753544 14.24509915 28.36721715 28.36721715 0 0 1-24.42146448 14.08457639 28.3387373 28.3387373 0 0 1-28.13290573-25.39236819c-19.70675611-36.14998124-62.29059255-61.25237285-111.75748899-61.25237287-48.13093294 0-89.75033837 23.72888652-110.13154891 58.28658568-0.19547529 0.78578473-0.53334977 1.49648624-0.76636666 2.22660584a28.35815538 28.35815538 0 0 1-28.22740701 26.10436424 28.3490936 28.3490936 0 0 1-28.13290572-25.39366273c-19.70675611-36.1486867-62.29059255-61.27049639-111.7678453-61.2704964-48.13093294 0-89.74127661 23.72888652-110.11213084 58.30600375a28.39569698 28.39569698 0 0 1-55.90204618-7.12772772c0-4.76907899 1.29065467-9.16533097 3.32955243-13.09425462 18.79928478-60.86918953 84.36376462-105.89323061 162.68462459-105.89323061 58.24127683 0 109.33670242 24.93539618 139.52662946 62.69319395 30.17309804-37.77721584 81.28664715-62.69319395 139.51756769-62.69319395 59.62513825 0 111.85199028 26.14190587 141.71569366 65.451855 29.82616178-39.29182562 82.00641043-65.45185502 141.63025415-65.451855 80.92158736 0 148.38515485 48.06491149 164.53581432 112.03840379 2.35864873 4.14252247 3.81759337 8.87664893 3.81759336 13.99266417a28.55492519 28.55492519 0 0 1-28.50832182 28.51608905z m-499.06133269 45.97941033c5.27394892 0 10.52200707 0.27185303 15.71181099 0.71199605 5.19109847-0.44014302 10.41067678-0.71199605 15.71310554-0.71199605 111.25261906 0 201.41591515 98.40173763 201.41591515 219.80353675 0 60.86918953-22.69066683 115.93884761-59.33516169 155.74460492-3.45123903 4.12439893-7.98730114 8.69800265-13.83343596 13.73893467-62.89773101 54.33177125-98.95450548 184.90666857-116.6961525 266.04314928-3.41369742 25.72118092-14.31888782 44.57613085-27.2733323 44.57613084s-23.87775842-18.85494992-27.29145584-44.57613084c-17.72352347-81.14554249-53.77900341-211.73985787-116.6689672-266.04314928a119.46516987 119.46516987 0 0 1-13.8515595-13.73893467c-36.63543309-39.80705185-59.32480537-94.89483346-59.32480538-155.74589946 0-121.39144281 90.18012507-219.80224222 201.43403869-219.80224221z m67.09721315 130.25773543c0.36505979 0.05695968 0.74824311 0.05695968 1.13142644 0.0945013l0.03883614 0.11133028s47.45518397 20.67895435 66.31142844 61.10220643c0.61749475 2.554124 1.53402785 5.00468496 2.99297248 7.0901861l0.05566514 0.18770805 0.47768463 0.56959684v-0.01812352l0.03624707-0.05695968a20.93268385 20.93268385 0 0 0 16.73320171 8.3989643 21.04401413 21.04401413 0 0 0 21.04401413-21.04401415c0-3.56256933-0.9165331-6.86493645-2.48810256-9.82942909l0.07508322 0.0750832s-1.36573787-4.19948215-4.96714334-10.942732a113.49605389 113.49605389 0 0 0-4.27327083-7.37886815 20.3048328 20.3048328 0 0 0-2.52564417-3.79817528c-0.25243497-0.32751819-0.49580816-0.69257797-0.74824312-1.03821969a115.32135285 115.32135285 0 0 0-3.85384044-5.33090861l-0.01812354-0.13074836c-4.12439893-5.65842678-9.54074706-11.19646151-15.56423364-16.46134867l0.1320429 0.07508322c-0.1320429-0.11262483-0.21618789-0.19676981-0.36505978-0.28997657-3.81629883-3.32049067-7.931636-6.51929474-12.14924168-9.60547397-43.7528045-33.7745035-58.49371181-33.50265047-58.49371182-33.50265048a21.04401413 21.04401413 0 0 0-21.04401413 21.04401415 21.06213769 21.06213769 0 0 0 17.46202675 20.67895435zM702.72432355 497.9193679c1.7217359 0 3.4331155 0.0945013 5.13543334 0.21489335 1.7217359-0.16828997 3.41369742-0.21489335 5.15226231-0.21489335 36.43089603 0 65.96708125 32.18351597 65.96708125 71.93360813 0 19.93071123-7.43582783 37.98175289-19.43490308 50.98280077a38.03871257 38.03871257 0 0 1-4.52700034 4.48945872c-20.58574759 17.77012685-32.38934755 60.54167135-38.19794076 87.10300759-1.11330291 8.41838238-4.69529031 14.60109716-8.93231408 14.60109718-4.2551473 0-7.81901117-6.15423493-8.93231408-14.60109718-5.78917515-26.56133627-17.61089865-69.32252445-38.19664624-87.10300759a41.08735021 41.08735021 0 0 1-4.52700034-4.48945872c-11.9809517-13.04765123-19.41677954-31.05208951-19.41677954-50.98280077C636.77666038 530.12100741 666.29601659 497.9193679 702.72432355 497.9193679z m21.95148548 42.63043983l0.38318332 0.03883614v0.03624706s15.54481556 6.78079147 21.71846859 20.00579446a6.54648003 6.54648003 0 0 0 0.9709037 2.31981258c0 0.01941808 0 0.0375416 0.01941808 0.05566514l0.16828997 0.19676983v-0.03754161a6.86493645 6.86493645 0 0 0 11.56022678-7.34132653l0.01941806 0.01812352s-0.44014302-1.36573787-1.6272346-3.58198739a59.13839186 59.13839186 0 0 0-1.4032795-2.43114288 6.23837993 6.23837993 0 0 0-0.82332633-1.24405128c-0.07508322-0.11262483-0.16828997-0.21618789-0.23301689-0.34693625-0.40260141-0.56959683-0.80520281-1.14954998-1.26346936-1.75798297v-0.03754161a32.97836247 32.97836247 0 0 0-5.09659716-5.38657376l0.0375416 0.01812355a0.49580816 0.49580816 0 0 1-0.11262484-0.09320676 57.14609746 57.14609746 0 0 0-3.9845888-3.14313892c-14.31888782-11.09289845-19.14622103-10.98027362-19.14622103-10.98027362a6.90247806 6.90247806 0 1 0-1.18709159 13.6923313z"  horiz-adv-x="1024" />
      
      <glyph glyph-name="weather" unicode="&#59271;" d="M756.0678125 733.8309375a235.9321875 235.9321875 0 0 1-35.064375-2.6034375 301.0171875 301.0171875 0 0 1-542.563125-99.5803125A187.1184375 187.1184375 0 0 1 32 449.085 187.1184375 187.1184375 0 0 1 219.1184375 261.96562500000005H756.06875a235.9321875 235.9321875 0 0 1 0 471.864375z m-618.3046875-520.678125h65.0840625v-178.98375h-65.0840625z m170.8471875-56.949375h65.085v-178.9828125H308.609375z m170.8471875-73.220625h65.085V-96h-65.085z m170.8471875 65.085h65.085v-178.9828125h-65.085z m170.848125 65.085h65.0840625v-178.98375h-65.0840625z"  horiz-adv-x="1024" />
      
      <glyph glyph-name="media-upload" unicode="&#59353;" d="M519.168 444.30222222c-3.64088889 4.66488889-10.69511111 4.66488889-14.336 0l-127.43111111-161.22311111c-4.66488889-5.91644445-0.45511111-14.67733333 7.168-14.67733333h84.08177778V-7.39555555000004c0-5.00622222 4.096-9.10222222 9.10222222-9.10222223h68.26666666c5.00622222 0 9.10222222 4.096 9.10222223 9.10222223V268.288H639.43111111c7.62311111 0 11.83288889 8.76088889 7.168 14.67733333L519.168 444.30222222zM852.65066667 549.31911111C800.54044445 686.76266667 667.76177778 784.49777778 512.22755555 784.49777778S223.91466667 686.87644445 171.80444445 549.43288889C74.29688889 523.83288889 2.27555555 434.97244445 2.27555555 329.38666666999995c0-125.72444445 101.83111111-227.55555555 227.44177778-227.55555556H275.34222222c5.00622222 0 9.10222222 4.096 9.10222223 9.10222222v68.26666667c0 5.00622222-4.096 9.10222222-9.10222223 9.10222222h-45.62488889c-38.34311111 0-74.41066667 15.24622222-101.26222222 42.89422223-26.73777778 27.53422222-40.96 64.62577778-39.70844444 103.08266666 1.024 30.03733333 11.264 58.25422222 29.80977778 82.03377778 19.00088889 24.23466667 45.62488889 41.87022222 75.2071111 49.72088889l43.12177778 11.264 15.81511112 41.64266667c9.78488889 25.94133333 23.43822222 50.176 40.61866666 72.1351111 16.95288889 21.84533333 37.09155555 40.84622222 59.61955556 56.77511112 46.76266667 32.88177778 101.83111111 50.28977778 159.28888888 50.28977778s112.52622222-17.408 159.2888889-50.28977778c22.64177778-15.92888889 42.66666667-35.04355555 59.61955555-56.77511112 17.18044445-21.95911111 30.83377778-46.30755555 40.61866667-72.1351111l15.70133333-41.5288889 43.008-11.37777777C892.13155555 449.42222222 935.25333333 393.32977778 935.25333333 329.38666666999995c0-37.66044445-14.67733333-73.15911111-41.30133333-99.78311112-26.624-26.624-62.00888889-41.30133333-99.66933333-41.30133333H748.65777778c-5.00622222 0-9.10222222-4.096-9.10222223-9.10222222v-68.26666667c0-5.00622222 4.096-9.10222222 9.10222223-9.10222222h45.62488889C919.89333333 101.83111111000005 1021.72444445 203.66222222 1021.72444445 329.38666666999995c0 105.472-71.79377778 194.21866667-169.07377778 219.93244444z"  horiz-adv-x="1024" />
      
      <glyph glyph-name="address-locate" unicode="&#59732;" d="M87.424 426.688a426.816 426.816 0 0 0 381.888 381.888V896h85.376v-87.424a426.816 426.816 0 0 0 381.888-381.888H1024v-85.376h-87.424a426.816 426.816 0 0 0-381.888-381.888V-128H469.312v87.424a426.816 426.816 0 0 0-381.888 381.888H0V426.688h87.424z m424.576-384A341.312 341.312 0 1 1 512 725.312a341.312 341.312 0 0 1 0-682.624z m0 170.624a170.688 170.688 0 1 1 0 341.376 170.688 170.688 0 0 1 0-341.376z"  horiz-adv-x="1024" />
      
      <glyph glyph-name="a-leibieshezhi4" unicode="&#59262;" d="M716.8 128v51.2h-153.6v153.6h153.6v-102.4h102.4v-102.4h-51.2v-102.4h-102.4v-102.4h-102.4v153.6h102.4v51.2h51.2z m256-204.8h-204.8v102.4h102.4v102.4h102.4v-204.8zM51.2 844.8h409.6v-409.6H51.2V844.8z m102.4-102.4v-204.8h204.8V742.4H153.6z m409.6 102.4h409.6v-409.6h-409.6V844.8z m102.4-102.4v-204.8h204.8V742.4h-204.8zM51.2 332.8h409.6v-409.6H51.2v409.6z m102.4-102.4v-204.8h204.8v204.8H153.6z m665.6 102.4h153.6v-102.4h-153.6v102.4zM204.8 691.2h102.4v-102.4H204.8V691.2z m0-512h102.4v-102.4H204.8v102.4zM716.8 691.2h102.4v-102.4h-102.4V691.2z"  horiz-adv-x="1024" />
      
      <glyph glyph-name="gas-enterprise" unicode="&#59263;" d="M643.84-76.79999999999995H237.7728C163.0208-76.79999999999995 102.4-14.89919999999995 102.4 61.440000000000055V706.56C102.4 782.8992 163.0208 844.8 237.7728 844.8H508.416c74.752 0 135.3728-61.9008 135.3728-138.24V-76.79999999999995z m93.7472 599.04h93.7472c49.8688 0 90.2656-41.2672 90.2656-92.16V-76.79999999999995h-184.0128V522.24z m-296.8064-207.36H305.4592a45.568 45.568 0 0 1-45.1584-46.08c0-24.2688 18.432-44.1856 41.7792-45.9776l3.3792-0.1024h135.3216a45.568 45.568 0 0 1 45.1584 46.08 45.568 45.568 0 0 1-45.1584 46.08z m0 230.4H305.4592a45.568 45.568 0 0 1-45.1584-46.08c0-24.2688 18.432-44.1856 41.7792-45.9776l3.3792-0.1024h135.3216a45.568 45.568 0 0 1 45.1584 46.08 45.568 45.568 0 0 1-45.1584 46.08z"  horiz-adv-x="1024" />
      
      <glyph glyph-name="gas-bottle" unicode="&#59264;" d="M538.097646 896c189.796412 0 285.180751-52.195293 297.308481-119.383939 0.511719-2.302733 0.767578-4.656639 0.972265-7.010544l0.102344-1.38164 0.102343-1.535156v-1.535155l0.102344-1.535156v-30.856629c-9.210934 0-16.630853-10.950777-16.630853-24.460147 0-13.458198 7.419919-24.408975 16.682025-24.408975v-102.548398c52.553496-41.602719 84.433562-96.356604 84.433561-156.381191v-334.612763c0-64.220679-47.487482-120.663235-119.179251-152.850332 9.722653-5.884763 15.914447-14.635151 15.914447-24.460147v-8.033981c0-17.910149-20.622258-32.442956-46.157014-32.442957H303.167658c-25.534756 0-46.259357 14.532807-46.259358 32.442957v8.033981c0 9.824996 6.140623 18.575384 15.965619 24.562491-71.640598 32.084753-119.230423 88.52731-119.230423 152.747988v334.663935c0 59.973415 31.931238 114.7273 84.535905 156.330019V683.995003l1.228125-0.102344c9.210934 0 16.733197 10.950777 16.733197 24.408975 0 13.50937-7.471091 24.408975-16.733197 24.408975l-1.228125-0.051172v28.605068c0 5.168357 0.409375 10.285543 1.228125 15.351556C250.307131 843.804707 348.761781 896 533.645695 896h4.400779z m0-17.910149c-180.892509 0-239.842487-52.860527-257.803808-78.344111-6.805857-9.773824-4.196092-21.082804 11.001949-23.129679 8.5457-1.125781 14.07226-1.535156 14.89101-6.140622 1.791015-8.801559-4.758983-9.10859-6.396482-9.057419h-0.358203l-0.102343-142.104243c54.037479 26.097646 119.486283 41.398031 190.001099 41.398032h0.972265a48.152716 48.152716 0 0 0-0.358203 5.628904v24.716006c0 5.935935 1.023437 11.616011 3.070312 16.886712-20.264055 7.675778-33.568737 20.622258-33.568738 35.30858 0 23.743741 34.950377 42.984359 77.985908 42.984359 43.086702 0 78.03708-19.240618 78.03708-42.984359 0-14.430463-12.844136-27.172255-32.596472-35.001549a47.43631 47.43631 0 0 0 3.172655-17.193743v-24.716006a48.152716 48.152716 0 0 0-0.307031-5.628904c70.310129 0 135.758933-15.300385 189.796412-41.34686V761.4180200000001s-1.023437 0.255859-8.955075 8.289841c-7.880466 8.033981 31.419519 0.81875 33.773425 16.528509C800.76278 789.050822 776.558493 878.089851 538.097646 878.089851z m92.876918-460.137325c9.978512-22.208585 11.462496-58.847634-9.159762-76.553096-33.36405 129.464794-117.030033 154.692519-117.030034 154.692519 9.92734-65.755834-34.950377-137.805807-79.060516-192.047973-1.535156 25.995303-3.070311 43.598421-17.449603 70.412473-3.070311-48.203888-39.555844-86.480436-50.19959-134.735496-12.844136-66.574584 10.643746-113.294488 100.296836-164.619859-28.144521 58.898806-12.844136 92.621058 9.159763 123.221828 23.539054 35.155065 29.679676 68.877317 29.679676 68.877318s19.03593-23.692569 11.462495-61.201539c31.880066 36.69022 38.020689 95.69137 33.517566 117.132377 72.971066-51.325371 105.567538-164.619859 63.043726-246.494828 224.900305 129.311279 55.367948 321.461596 25.739443 341.316276z"  horiz-adv-x="1024" />
      
      <glyph glyph-name="gas-user" unicode="&#59267;" d="M473.088 246.22080000000005c-1.8432-3.6352-6.144-7.6288-12.8-11.8784-15.8208-9.728-32.8704-17.6128-51.1488-23.7056-18.2272-6.0928-35.7376-12.8-52.48-20.0704a150.016 150.016 0 0 1-43.8784-28.7744c-12.4416-11.8272-20.224-28.7232-23.2448-50.6368-1.2288-6.656-2.048-13.2096-2.304-19.6096-0.3072-6.4-0.768-12.288-1.3824-17.7664a29.7984 29.7984 0 0 0-1.792-3.2256 29.7984 29.7984 0 0 1-1.8432-3.1744 3166.464 3166.464 0 0 0-72.192 6.4 1403.392 1403.392 0 0 0-67.072 8.192c-20.4288 3.072-37.632 6.0928-51.6096 9.1136-14.0288 3.072-22.8352 6.0928-26.4704 9.1136-5.4784 4.3008-9.6256 17.0496-12.3392 38.3488-2.7648 21.2992-1.6896 48.9472 3.1744 83.0464 3.072 18.8416 10.8032 33.28 23.296 43.3152a143.36 143.36 0 0 0 44.288 23.7568c17.0496 5.7344 34.56 11.0592 52.5312 15.9744 17.92 4.864 33.9456 11.52 47.9232 20.0704 10.9568 7.2704 19.3536 13.9776 25.088 20.0704a56.832 56.832 0 0 1 12.3904 18.688c2.4064 6.4 3.6352 12.9024 3.6352 19.6096a286.72 286.72 0 0 1-0.9216 21.9136c-1.2288 12.1856-5.3248 21.76-12.288 28.7232a413.5424 413.5424 0 0 1-23.3472 21.504 35.072 35.072 0 0 0-12.288 14.5408 190.3104 190.3104 0 0 0-8.704 20.0704 423.2192 423.2192 0 0 0-7.2704 24.6784 46.08 46.08 0 0 0-11.008 5.4272 51.0976 51.0976 0 0 0-9.5744 10.9568 88.576 88.576 0 0 0-9.5744 20.0704 60.0064 60.0064 0 0 0 0.9216 43.776 44.1344 44.1344 0 0 0 10.0352 16.4864c-0.6144 19.456 0.3072 39.2192 2.7136 59.2896 2.4576 16.384 6.4 34.048 11.8784 52.9408 5.4784 18.8416 13.7216 35.84 24.6784 51.0976 9.728 14.592 20.6848 26.4704 32.8704 35.584a171.008 171.008 0 0 0 36.9664 21.4528c12.4928 5.12 25.1392 8.6528 37.888 10.496 12.8 1.792 25.2928 2.7136 37.4784 2.7136 30.464 0 57.856-6.4 82.176-19.1488 24.3712-12.8 42.6496-26.4704 54.784-41.0624 7.936-10.3424 12.9536-19.968 15.104-28.7744 2.1504-8.8064 5.0176-18.944 8.704-30.5664a185.344 185.344 0 0 1-37.0176-29.6448 335.36 335.36 0 0 1-34.2528-39.68 187.5968 187.5968 0 0 1-27.392-56.576c-6.0928-20.6848-10.6496-39.8336-13.7216-57.4976-3.0208-21.2992-4.5568-42.5984-4.5568-63.8464a56.1664 56.1664 0 0 1-10.9568-18.2784 72.0384 72.0384 0 0 1-0.9216-48.3328c3.072-10.3424 6.4-18.2784 10.0864-23.7568 3.584-5.4784 6.9632-9.728 10.0352-12.8a28.7744 28.7744 0 0 1 10.9568-7.2704c2.4064-9.728 4.864-18.8416 7.3216-27.3408 2.4064-7.3216 5.3248-14.7968 8.6528-22.3744a41.3184 41.3184 0 0 1 12.288-16.896c4.3008-3.6352 7.68-6.656 10.0864-9.1136 2.4576-2.4576 4.4032-4.7104 5.9392-6.8608 1.536-2.0992 2.4576-5.0176 2.7136-8.6528 0.3072-3.6352 1.0752-8.4992 2.304-14.592-1.2288-6.656-2.7136-11.8784-4.608-15.5136z m497.2544-183.3984c1.536-12.1856 2.304-24.4736 2.304-36.9664s-0.9216-24.1664-2.7648-35.1232c-1.792-10.9568-4.5568-19.1488-8.192-24.6272-2.4576-3.6864-9.5744-7.3216-21.504-10.9568-11.8272-3.6864-26.624-7.0144-44.2368-10.0352a1487.5648 1487.5648 0 0 0-122.88-15.5136c-21.6064-1.8432-42.4448-3.3792-62.5152-4.608-20.1216-1.1776-37.7856-1.792-52.992-1.792-15.2064 0-32.768 0.6144-52.5312 1.8432a2575.7696 2575.7696 0 0 0-61.6448 4.5568 3710.6176 3710.6176 0 0 0-62.976 5.9392c-20.736 2.0992-39.7312 4.5568-57.088 7.2704a651.9296 651.9296 0 0 0-43.8272 8.192c-11.8784 2.7648-19.3536 5.376-22.3744 7.7824-4.9152 4.2496-8.8576 17.0496-11.8784 38.3488-3.072 21.248-2.1504 48.64 2.7136 82.1248 3.072 19.456 10.8032 34.048 23.296 43.776 12.4928 9.728 27.2384 17.664 44.288 23.7056 17.0496 6.144 34.56 11.4176 52.5312 15.9744a158.6176 158.6176 0 0 1 73.0624 40.6016c5.7856 6.144 10.0352 12.1856 12.8 18.2784a46.1312 46.1312 0 0 1 4.096 19.1488c0 6.656-0.3072 14.336-0.9216 22.8352-1.2288 12.1344-5.4784 21.7088-12.8 28.672a320.0512 320.0512 0 0 1-23.7568 20.5824 48.9472 48.9472 0 0 0-11.4176 15.5136 190.3104 190.3104 0 0 0-8.6528 20.0704 423.2192 423.2192 0 0 0-7.3216 24.6272 46.08 46.08 0 0 0-10.9568 5.4784 51.0976 51.0976 0 0 0-9.5744 10.9568 88.576 88.576 0 0 0-9.5744 20.0704 57.856 57.856 0 0 0-3.6864 24.1664 51.0464 51.0464 0 0 0 4.608 18.7392c2.4064 6.0416 5.7344 11.52 10.0352 16.384-0.6144 19.456 0.3072 39.2704 2.7136 59.3408 2.4576 17.0496 6.2464 34.816 11.4176 53.3504 5.1712 18.5856 13.2608 35.7376 24.2176 51.5584 9.728 14.592 20.6848 26.4704 32.8704 35.584a163.8912 163.8912 0 0 0 75.776 31.9488c12.8 1.8432 24.9856 2.7648 36.5568 2.7648 31.0272 0 58.7776-6.4 83.0976-19.2 24.3712-12.8 42.3424-26.4192 53.9136-41.0624 13.3632-16.384 23.2448-34.816 29.696-55.1936 6.3488-20.3776 11.0592-39.424 14.1312-57.0368 3.072-20.6848 4.2496-41.3696 3.6352-62.0544 3.072-2.4064 5.7856-5.7344 8.192-10.0352 1.8432-3.584 3.584-8.3456 5.0688-14.1312 1.536-5.7856 1.6384-12.9024 0.4608-21.4528a72.192 72.192 0 0 0-7.3216-26.4192c-3.6352-6.7072-7.3216-11.8784-10.9568-15.5136a29.44 29.44 0 0 0-14.592-8.192 423.2192 423.2192 0 0 0-7.3216-24.6784 146.432 146.432 0 0 0-9.1648-20.0704 42.6496 42.6496 0 0 0-11.8272-14.592 275.6608 275.6608 0 0 0-13.2608-10.9568c-3.9424-3.072-7.4752-6.2464-10.496-9.5744a50.2784 50.2784 0 0 1-7.7824-11.4176 61.952 61.952 0 0 1-5.0176-15.5136 127.488 127.488 0 0 1-1.3824-24.1664c0.3072-8.192 2.304-16.2816 5.9392-24.2176 3.6864-7.8848 9.6256-15.5136 17.8176-22.784 8.192-7.3216 19.6608-13.6704 34.2528-19.1488 12.8-5.4784 26.9312-10.24 42.496-14.1824 15.5136-3.9424 30.4128-8.6528 44.6976-14.1312 14.336-5.4784 27.136-12.4416 38.4-20.992 11.264-8.4992 19.3024-19.456 24.1664-32.8192 2.4576-8.5504 4.4544-18.8928 5.9392-31.0272z"  horiz-adv-x="1024" />
      
      <glyph glyph-name="gas-one-map" unicode="&#59265;" d="M834.56 337.91999999999996h-158.0544a1590.6816 1590.6816 0 0 0-129.9456-169.1136L512 130.55999999999995l-34.56 38.2464A1590.6816 1590.6816 0 0 0 347.4944 337.91999999999996H189.44l-115.7632-347.3408A51.2 51.2 0 0 1 122.2144-76.79999999999995h779.5712a51.2 51.2 0 0 1 48.5376 67.3792L834.56 337.91999999999996z m-92.16 276.48a230.4 230.4 0 1 1-460.8 0c0-157.5936 230.4-414.72 230.4-414.72s230.4 257.1264 230.4 414.72z m-322.56 0a92.16 92.16 0 1 0 184.32 0 92.16 92.16 0 0 0-184.32 0z"  horiz-adv-x="1024" />
      
      <glyph glyph-name="gas-site" unicode="&#59266;" d="M492.8512 838.0928a34.56 34.56 0 0 0 40.96 0l431.36-310.3232c14.2336-9.8304 7.168-32.2048-9.728-32.2048h-87.1936v-554.496a17.92 17.92 0 0 0-17.8176-17.8688H174.3872a17.92 17.92 0 0 0-17.7664 17.92V495.5136H69.4272c-17.7664 0-24.8832 22.3744-10.6496 32.2048z m-18.176-286.5152c11.776-78.848-40.3968-164.6592-90.88-229.4784-1.6896 31.5392-3.328 52.5312-20.1728 84.0704-3.328-57.8048-45.4144-103.3216-57.1392-161.1264-15.1552-78.848 11.7248-134.8608 114.3808-196.1472-32 70.0416-15.1552 110.336 10.0352 147.0976 26.9824 41.984 33.6896 82.2784 33.6896 82.2784s21.8624-28.0064 13.4144-73.5744c37.0176 43.8272 43.776 113.8688 38.7072 140.1344 84.1216-61.3376 121.1392-196.1984 72.3456-294.2976 259.072 154.1632 63.9488 383.5904 30.3104 408.1152 11.776-26.2656 13.4144-70.0416-10.0864-91.0336-38.7072 154.1632-134.656 183.9616-134.656 183.9616z"  horiz-adv-x="1024" />
      
      <glyph glyph-name="arrow-up" unicode="&#59397;" d="M268.48 428.48a42.688 42.688 0 0 0 0 60.352L481.92 702.144l2.688 2.56a42.688 42.688 0 0 0 57.6-2.56l213.376-213.312 2.496-2.688a42.688 42.688 0 0 0-2.56-57.6l-2.688-2.56a42.688 42.688 0 0 0-57.6 2.56L512 611.5840000000001 328.832 428.48l-2.688-2.496a42.688 42.688 0 0 0-57.6 2.56z m0-362.624a42.688 42.688 0 0 0 0 60.288L481.92 339.52l2.688 2.496a42.688 42.688 0 0 0 57.6-2.56l213.376-213.312 2.496-2.688a42.688 42.688 0 0 0-2.56-57.6l-2.688-2.56a42.688 42.688 0 0 0-57.6 2.56L512 248.96000000000004 328.832 65.91999999999996l-2.688-2.56a42.688 42.688 0 0 0-57.6 2.56z"  horiz-adv-x="1024" />
      
      <glyph glyph-name="arrow-down" unicode="&#59398;" d="M755.52 278.36444444999995c16.64-16.64 16.64-43.712 0-60.352L542.08 4.700444449999964l-2.688-2.56a42.688 42.688 0 0 0-57.6 2.56L268.48 218.01244444999998l-2.496 2.688a42.688 42.688 0 0 0 2.56 57.6l2.688 2.56a42.688 42.688 0 0 0 57.6-2.56L512 95.26044445000002l183.168 183.168 2.688 2.496a42.688 42.688 0 0 0 57.6-2.56z m0 362.624c16.64-16.64 16.64-43.648 0-60.288L542.08 367.32444445l-2.688-2.496a42.688 42.688 0 0 0-57.6 2.56L268.48 580.63644445l-2.496 2.688a42.688 42.688 0 0 0 2.56 57.6l2.688 2.56a42.688 42.688 0 0 0 57.6-2.56L512 457.88444445l183.168 183.104 2.688 2.56a42.688 42.688 0 0 0 57.6-2.56z"  horiz-adv-x="1024" />
      
      <glyph glyph-name="equip-table" unicode="&#59257;" d="M128 30.20799999999997a54.997333 54.997333 0 0 1 54.997333-54.997333h658.005334A54.997333 54.997333 0 0 1 896 30.20799999999997v203.413333H128v-203.413333z m533.205333 119.957333a9.045333 9.045333 0 0 0 9.045334 9.066667h84.266666a9.045333 9.045333 0 0 0 9.088-9.066667v-33.066666a9.066667 9.066667 0 0 0-9.066666-9.066667h-84.266667a9.066667 9.066667 0 0 0-9.066667 9.066667v33.066666zM128 284.79999999999995h768V486.4H128v-201.621333z m533.205333 116.586667a9.045333 9.045333 0 0 0 9.045334 9.045333h84.266666a9.045333 9.045333 0 0 0 9.088-9.045333v-33.066667a9.066667 9.066667 0 0 0-9.066666-9.088h-84.266667a9.066667 9.066667 0 0 0-9.066667 9.066667v33.066666z m179.797334 393.045333H182.997333A55.018667 55.018667 0 0 1 128 739.370667V537.6h768V739.370667a55.018667 55.018667 0 0 1-54.997333 55.04z m-77.397334-170.688a9.066667 9.066667 0 0 0-9.066666-9.066667h-84.266667a9.066667 9.066667 0 0 0-9.066667 9.066667v33.066667a9.045333 9.045333 0 0 0 9.045334 9.066666h84.266666a9.045333 9.045333 0 0 0 9.088-9.066666v-33.066667z"  horiz-adv-x="1024" />
      
      <glyph glyph-name="danger-manage" unicode="&#59258;" d="M520.704 795.605333c57.386667 0 108.8-29.696 137.493333-79.402666L951.509333 208a157.013333 157.013333 0 0 0 0-158.72 157.184 157.184 0 0 0-137.514666-79.36h-586.88a157.013333 157.013333 0 0 0-137.408 79.274667 157.013333 157.013333 0 0 0 0 158.72L383.189333 716.181333a157.184 157.184 0 0 0 137.514667 79.402667z m-0.106667-561.301333a50.794667 50.794667 0 1 1 0-101.610667 50.794667 50.794667 0 0 1 0 101.610667z m0 267.306667a45.12 45.12 0 0 1-45.098666-45.12v-137.6a45.12 45.12 0 0 1 90.197333 0v137.6a45.12 45.12 0 0 1-45.098667 45.098666z"  horiz-adv-x="1024" />
      
      <glyph glyph-name="alarm-management" unicode="&#59259;" d="M512.298667 656.298667c159.402667 0 289.109333-129.706667 289.109333-289.109334V132.69333300000005a44.906667 44.906667 0 0 0-44.906667-44.885333H268.096a44.906667 44.906667 0 0 0-44.885333 44.885333V367.18933300000003c0 159.402667 129.706667 289.109333 289.088 289.109334z m43.093333-148.8a44.906667 44.906667 0 0 1-56-29.909334 44.906667 44.906667 0 0 1 29.909333-56 52.16 52.16 0 0 0 36.608-49.493333 44.906667 44.906667 0 1 1 89.792 0 140.608 140.608 0 0 1-100.309333 135.402667zM860.096-65.40800000000002H164.416a44.906667 44.906667 0 0 0-44.906667 44.906667V132.69333300000005c0 24.810667 20.096 44.906667 44.885334 44.906667h695.701333c24.810667 0 44.906667-20.096 44.906667-44.906667v-153.173333a44.906667 44.906667 0 0 0-44.906667-44.928zM512.490667 687.893333A44.906667 44.906667 0 0 0 467.626667 732.8V786.0906669999999a44.906667 44.906667 0 1 0 89.813333 0V732.8a44.906667 44.906667 0 0 0-44.928-44.906667zM768 593.301333c-11.52 0-22.997333 4.394667-31.701333 13.098667a44.970667 44.970667 0 0 0 0 63.509333l37.696 37.696c17.493333 17.493333 45.909333 17.493333 63.509333 0 17.493333-17.493333 17.493333-45.909333 0-63.509333l-37.696-37.696a45.312 45.312 0 0 0-31.808-13.098667z m-513.408 0c-11.498667 0-22.997333 4.394667-31.701333 13.098667l-37.696 37.696a44.970667 44.970667 0 0 0 0 63.509333c17.493333 17.493333 46.016 17.493333 63.509333 0l37.696-37.696c17.493333-17.493333 17.493333-45.909333 0-63.509333a45.312 45.312 0 0 0-31.786667-13.098667z"  horiz-adv-x="1024" />
      
      <glyph glyph-name="equip-map" unicode="&#59260;" d="M509.098667 832.106667c171.904 0 311.808-139.904 311.808-311.808 0-216-273.6-419.2-285.312-427.690667a44.714667 44.714667 0 0 0-52.992 0c-11.712 8.490667-285.312 211.690667-285.312 427.690667 0 171.904 139.904 311.808 311.808 311.808z m0-160.213334a151.765333 151.765333 0 0 1-151.594667-151.594666 151.765333 151.765333 0 0 1 151.594667-151.594667 151.765333 151.765333 0 0 1 151.594666 151.594667 151.765333 151.765333 0 0 1-151.594666 151.594666z m0-89.6a62.058667 62.058667 0 0 0 61.994666-61.994666 62.058667 62.058667 0 0 0-61.994666-61.994667 62.058667 62.058667 0 0 0-61.994667 61.994667 62.058667 62.058667 0 0 0 61.994667 61.994666zM811.2-64.21333300000003H211.52a130.346667 130.346667 0 0 0-121.493333 177.408l3.178666 6.613333 36.8 62.186667a131.733333 131.733333 0 0 0 112.896 64.298666 44.8 44.8 0 1 0 0-89.6c-14.592 0-28.394667-7.786667-35.797333-20.394666l-34.602667-58.389334a39.957333 39.957333 0 0 1 5.397334-34.816c7.701333-11.2 19.904-17.706667 33.493333-17.706666h599.616c13.589333 0 25.792 6.4 33.493333 17.706666a40.298667 40.298667 0 0 1 5.397334 34.816l-34.602667 58.389334a41.834667 41.834667 0 0 1-35.797333 20.394666 44.8 44.8 0 1 0 0 89.6 131.84 131.84 0 0 0 112.896-64.384l40.106666-68.8a130.346667 130.346667 0 0 0-13.994666-120.704 129.92 129.92 0 0 0-107.306667-56.597333z"  horiz-adv-x="1024" />
      
      <glyph glyph-name="jichushuju" unicode="&#59261;" d="M835.306667-28.010667H188.373333a125.226667 125.226667 0 0 0-125.098666 125.12V515.498667c0 20.992 5.397333 41.898667 15.701333 60.309333l88.106667 157.802667a125.141333 125.141333 0 0 0 109.205333 64.085333h471.082667a125.248 125.248 0 0 0 109.226666-64.106667l88.085334-157.781333a123.52 123.52 0 0 0 15.701333-60.309333v-418.496c0-68.906667-56.106667-125.013333-125.098667-125.013334zM157.290667 531.989333c-2.773333-5.098667-4.288-10.794667-4.288-16.597333v-418.389333c0-19.498667 15.893333-35.413333 35.413333-35.413334h646.890667c19.498667 0 35.285333 15.914667 35.285333 35.413334V515.498667c0 5.802667-1.493333 11.52-4.288 16.597333l-88.106667 157.802667a35.328 35.328 0 0 1-30.890666 18.090666H276.309333c-12.8 0-24.618667-6.890667-30.912-18.090666l-88.106666-157.909334zM917.333333 512v-490.666667H106.666667V512h810.666666z m-131.029333-282.304H454.592a44.906667 44.906667 0 1 1 0-89.813333h331.712a44.906667 44.906667 0 1 1 0 89.813333z m0 152.405333h-186.794667a44.906667 44.906667 0 1 1 0-89.813333h186.794667a44.906667 44.906667 0 1 1 0 89.813333zM893.098667 467.093333H132.608a44.906667 44.906667 0 1 0 0 89.813334h760.490667a44.906667 44.906667 0 1 0 0-89.813334z"  horiz-adv-x="1024" />
      
      <glyph glyph-name="human-line" unicode="&#59180;" d="M657.929375 360.94500000000005c75.04875 47.053125 125.34375 129.9121875 125.34375 225.028125 0 146.9746875-119.150625 266.1271875-266.12625 266.1271875-146.9859375 0-266.1271875-119.150625-266.1271875-266.128125 0-95.1159375 50.2940625-177.973125 125.34375-225.0271875-169.32-58.6284375-291.6778125-217.7625-291.6778125-407.0296875 0-18.375 14.889375-33.264375 33.2653125-33.264375H916.34375c18.375 0 33.264375 14.8875 33.264375 33.264375-0.001875 189.2671875-122.3596875 348.40125-291.6796875 407.0296875z m-340.3828125 225.028125c0 110.2340625 89.3625 199.5965625 199.5984375 199.5965625s199.5984375-89.3625 199.5984375-199.5965625-89.3625-199.5965625-199.5975-199.5965625-199.599375 89.3625-199.599375 199.595625z m199.5984375-266.128125c190.696875 0 345.525-146.416875 362.58-332.6653125H154.565C171.621875 173.42812500000002 326.448125 319.845 517.146875 319.845z"  horiz-adv-x="1024" />
      
      <glyph glyph-name="gas-home" unicode="&#59334;" d="M975.46666667 391.46666667L563.30666667 803.41333333l-27.62666667 27.62666667c-13.12 13.01333333-34.24 13.01333333-47.36 0L48.53333333 391.46666667c-13.12-13.12-20.16-30.50666667-20.05333333-49.06666667 0.42666667-37.54666667 31.68-67.52 69.22666667-67.52h45.33333333V-72.53333333h737.92V274.88h46.29333333c18.24 0 35.41333333 7.14666667 48.32 20.05333333 12.90666667 12.90666667 19.94666667 30.08 19.94666667 48.32 0 18.13333333-7.14666667 35.30666667-20.05333333 48.21333334zM571.73333333 4.26666666999995H452.26666667V221.86666666999997h119.46666666v-217.6z m232.42666667 347.41333333V4.26666666999995H640V247.46666667c0 23.57333333-19.09333333 42.66666667-42.66666667 42.66666666H426.66666667c-23.57333333 0-42.66666667-19.09333333-42.66666667-42.66666666v-243.2H219.84V351.67999999999995h-102.4l394.66666667 394.34666667 24.64-24.64L906.66666667 351.67999999999995h-102.50666667z"  horiz-adv-x="1024" />
      
      <glyph glyph-name="cancel-full-screen" unicode="&#60176;" d="M197.78199986 208.03791916H90.94787869v119.40284072h320.50236063v-301.64928058h-125.68719977v100.54976068l-188.53080037-188.53080036L9.2511995 19.50711879000005l188.53080036 188.53080037z m622.15164124 0l188.53080037-188.53080037-87.98104114-87.98103968-188.53080039 188.53080037v-100.54976069h-125.68719975V321.15639939000005h320.50236063v-119.40283926h-106.83411972zM197.78199986 635.37440099L34.38863855 798.76776082 116.08531921 886.7488005l169.67772034-169.67772034V817.62084086h125.68719977v-301.64928059H90.94787869V635.37440099H197.78199986z m634.72036077 0h94.26540019v-119.40284072h-320.50236063V817.62084086h125.68719975v-106.83411972L907.91468079 886.7488005l87.98103968-87.98103968L832.50236063 635.37440099z"  horiz-adv-x="1024" />
      
      <glyph glyph-name="circle-down" unicode="&#59256;" d="M512 896C229.23 896 0 666.77 0 384s229.23-512 512-512 512 229.23 512 512S794.77 896 512 896z m241.92-465.92l-208-208a47.9 47.9 0 0 0-67.84 0l-208 208a48 48 0 1 0 67.84 67.84L512 323.84000000000003l174.08 174.08a48 48 0 1 0 67.84-67.84z"  horiz-adv-x="1024" />
      
      <glyph glyph-name="menu-evaluation-type-manage" unicode="&#59249;" d="M341.333 341.33299999999997a128 128 0 0 0 128-128v-106.666a128 128 0 0 0-128-128H234.667a128 128 0 0 0-128 128V213.33299999999997a128 128 0 0 0 128 128h106.666z m448 0a128 128 0 0 0 128-128v-106.666a128 128 0 0 0-128-128H682.667a128 128 0 0 0-128 128V213.33299999999997a128 128 0 0 0 128 128h106.666z m-448 448a128 128 0 0 0 128-128v-106.666a128 128 0 0 0-128-128H234.667a128 128 0 0 0-128 128V661.333a128 128 0 0 0 128 128h106.666z m448 0a128 128 0 0 0 128-128v-106.666a128 128 0 0 0-128-128H682.667a128 128 0 0 0-128 128V661.333a128 128 0 0 0 128 128h106.666z"  horiz-adv-x="1024" />
      
      <glyph glyph-name="menu-indicator-manage" unicode="&#59250;" d="M768 753.13a128 128 0 0 0 128-128v-320a128 128 0 0 0-128-128l-213.333 0.022v-91.819h192a42.667 42.667 0 1 0 0-85.333H277.333a42.667 42.667 0 1 0 0 85.333h192v91.819H256a128 128 0 0 0-128 128v320a128 128 0 0 0 128 128h512z m-35.072-162.687a42.667 42.667 0 0 1-60.33 0L556.522 474.389 478.1 552.8109999999999l-2.709 2.496a42.667 42.667 0 0 1-57.621-2.496L291.05 426.112l-2.475-2.71a42.667 42.667 0 0 1 2.496-57.62l2.71-2.497a42.667 42.667 0 0 1 57.62 2.496l96.513 96.534 78.464-78.443 2.709-2.496a42.667 42.667 0 0 1 57.621 2.496l146.219 146.219 2.496 2.73a42.667 42.667 0 0 1-2.496 57.6z"  horiz-adv-x="1024" />
      
      <glyph glyph-name="menu-eval-obj-manage" unicode="&#59251;" d="M760.896 312.89599999999996a177.77 177.77 0 0 0 0-355.563H263.104a177.77 177.77 0 0 0 0 355.563h497.792zM512 810.6659999999999c117.824 0 213.333-95.509 213.333-213.333 0-115.84-92.309-210.09-207.36-213.248L512 384c-117.824 0-213.333 95.51-213.333 213.333 0 115.84 92.309 210.091 207.36 213.248l5.973 0.086z"  horiz-adv-x="1024" />
      
      <glyph glyph-name="menu-evaluation-result-manage" unicode="&#59252;" d="M725.333 405.333c129.6 0 234.667-105.066 234.667-234.666S854.933-64 725.333-64 490.667 41.06700000000001 490.667 170.66700000000003s105.066 234.666 234.666 234.666zM682.667 810.667a128 128 0 0 0 128-128v-205.163a21.333 21.333 0 0 0-26.496-20.693c-33.43 8.341-60.16 12.522-80.171 12.522-164.95 0-298.667-133.717-298.667-298.666 0-48.534 22.678-108.736 68.011-180.63a21.333 21.333 0 0 0-18.048-32.725l-241.963 0.021a128 128 0 0 0-128 128V682.667a128 128 0 0 0 128 128h469.334z m87.68-574.144l-2.71-2.496-57.194-57.195-27.414 27.435-2.73 2.496a42.667 42.667 0 0 1-60.118-60.118l2.496-2.709 57.6-57.6 2.731-2.496a42.667 42.667 0 0 1 54.912 0l2.71 2.475 87.36 87.36 2.495 2.73a42.667 42.667 0 0 1-60.117 60.118zM309.568 444.288h-64.213a42.667 42.667 0 0 1 0-85.333h64.213a42.667 42.667 0 1 1 0 85.333zM469.333 631.36h-224a42.667 42.667 0 0 1 0-85.333h224a42.667 42.667 0 1 1 0 85.333z"  horiz-adv-x="1024" />
      
      <glyph glyph-name="menu-evaluation-task-manage" unicode="&#59253;" d="M810.667 810.667a128 128 0 0 0 128-128v-597.334a128 128 0 0 0-128-128H213.333a128 128 0 0 0-128 128V682.667a128 128 0 0 0 128 128h597.334z m-326.4-510.08a42.667 42.667 0 0 1-60.352 0.426l-87.68-86.357-44.374 41.813-2.794 2.432a42.667 42.667 0 0 1-55.744-64.533l74.325-70.016 2.88-2.475a42.667 42.667 0 0 1 56.32 3.136l116.95 115.2 2.517 2.71a42.667 42.667 0 0 1-2.048 57.642zM749.909 256H587.82l-3.2-0.107a42.667 42.667 0 0 1 3.2-85.226h162.09l3.179 0.106a42.667 42.667 0 0 1-3.2 85.227zM341.333 661.333a128 128 0 1 1 0-256 128 128 0 0 1 0 256z m0-85.333a42.667 42.667 0 1 0 0-85.333 42.667 42.667 0 0 0 0 85.333z m408.576 0H587.82l-3.2-0.107a42.667 42.667 0 0 1 3.2-85.226h162.09l3.179 0.106a42.667 42.667 0 0 1-3.2 85.227z"  horiz-adv-x="1024" />
      
      <glyph glyph-name="menu-inspectors-manage" unicode="&#59254;" d="M854.677 341.33299999999997L981.333 128 854.656-85.33299999999997H601.344L474.667 128l126.677 213.333h253.333zM507.35 312.89599999999996L397.568 128 498.88-42.64499999999998l-235.776-0.022a177.77 177.77 0 0 0 0 355.563h244.245zM728 217.173a89.173 89.173 0 1 1 0-178.346 89.173 89.173 0 0 1 0 178.346zM512 810.667c117.824 0 213.333-95.51 213.333-213.334a213.333 213.333 0 0 0-120.32-192.042l-0.085 0.042a210.923 210.923 0 0 0-86.933-21.248L512 384c-117.824 0-213.333 95.51-213.333 213.333 0 115.84 92.309 210.091 207.36 213.248l5.973 0.086z"  horiz-adv-x="1024" />
      
      <glyph glyph-name="menu-sample-manage" unicode="&#59255;" d="M160.427 685.952A128 128 0 0 0 279.893 768h464.214a128 128 0 0 0 119.466-82.048l75.094-195.285v-405.334A85.333 85.333 0 0 0 853.333 0H170.667a85.333 85.333 0 0 0-85.334 85.333V490.667l75.094 195.285z m500.906-323.285h-256a64 64 0 0 1-3.754-127.894l3.754-0.106h256a64 64 0 0 1 3.755 127.893l-3.755 0.107z m76.694 328.554H287.723a42.667 42.667 0 0 1-37.824-22.912l-1.451-3.072-74.155-174.57h682.71l-80.15 175.594a42.667 42.667 0 0 1-38.826 24.96z"  horiz-adv-x="1024" />
      
      <glyph glyph-name="new-info" unicode="&#59248;" d="M512 810.666667C277.333333 810.666667 85.333333 618.666667 85.333333 384s192-426.666667 426.666667-426.666667 426.666667 192 426.666667 426.666667S746.666667 810.666667 512 810.666667z m42.666667-640h-85.333334v256h85.333334v-256z m0 341.333333h-85.333334V597.333333h85.333334v-85.333333z"  horiz-adv-x="1024" />
      
      <glyph glyph-name="new-error" unicode="&#59609;" d="M512 810.666667C276.48 810.666667 85.333333 619.733333 85.333333 384s191.146667-426.666667 426.666667-426.666667 426.666667 190.933333 426.666667 426.666667S747.52 810.666667 512 810.666667z m42.666667-640h-85.333334v85.333333h85.333334v-85.333333z m0 170.666666h-85.333334V597.333333h85.333334v-256z"  horiz-adv-x="1024" />
      
      <glyph glyph-name="add-line" unicode="&#59247;" d="M512 19.91111110999998c-200.75861333 0-364.08888889 163.33027555-364.08888889 364.08888889S311.24138667 748.08888889 512 748.08888889s364.08888889-163.33027555 364.08888889-364.08888889-163.33027555-364.08888889-364.08888889-364.08888889m0 800.99555556C271.08238222 820.90666667 75.09333333 624.91761778 75.09333333 384s195.98904889-436.90666667 436.90666667-436.90666667 436.90666667 195.98904889 436.90666667 436.90666667S752.91761778 820.90666667 512 820.90666667M707.62496 430.71260445H548.40888889v159.25248a36.40888889 36.40888889 0 1 1-72.81777778 0v-159.25248h-159.21607111a36.40888889 36.40888889 0 0 1 0-72.81777778H475.59111111v-159.25248a36.40888889 36.40888889 0 0 1 72.81777778 0v159.25248h159.25248a36.40888889 36.40888889 0 0 1 0 72.81777778"  horiz-adv-x="1024" />
      
      <glyph glyph-name="new-warning" unicode="&#59242;" d="M522.656 219.93600000000004a32 32 0 1 0 0-64 32 32 0 0 0 0 64z m-32 256a32 32 0 1 0 64 0v-160a32 32 0 1 0-64 0v160z m418.528-363.584L566.528 708.288c-10.112 17.6-26.112 27.712-43.872 27.712s-33.728-10.08-43.872-27.712L136.16 112.38400000000001c-10.112-17.6-10.816-36.512-1.92-51.84 8.864-15.36 25.568-24.16 45.76-24.16h685.344c20.224 0 36.896 8.768 45.76 24.128 8.928 15.36 8.224 34.272-1.92 51.84z"  horiz-adv-x="1024" />
      
      <glyph glyph-name="download1" unicode="&#59240;" d="M1024 147.45600000000002q0-25.6-8.704-48.128t-24.064-40.96-36.352-30.208-45.568-15.872l0-2.048-21.504 0-1.024 0-664.576 0q-2.048 0-2.56-0.512t-2.56-0.512-3.072 0.512-3.072 0.512l-6.144 0 0 1.024q-43.008 2.048-80.384 19.456t-65.024 46.592-43.52 67.584-15.872 81.408 15.872 80.896 43.008 66.56 63.488 47.104 78.336 21.504q7.168 66.56 36.864 124.416t76.288 100.864 107.008 67.584 129.024 24.576q72.704 0 137.216-27.648t112.128-75.776 75.264-112.128 27.648-136.704q0-32.768-6.144-64t-17.408-59.904q2.048 0 4.608 0.512t4.608 0.512q28.672 0 53.248-10.752t43.008-29.184 29.184-43.52 10.752-53.76zM687.104 299.00800000000004q12.288 20.48 7.168 23.552t-25.6 3.072q-12.288 0-34.304 0.512t-33.28 0.512q-16.384 0-20.992 13.312t-4.608 36.864q0 32.768-0.512 52.736t-0.512 43.52q0 26.624-3.584 38.912t-29.184 12.288q-18.432 0-27.648-0.512t-25.6-0.512q-27.648 0-34.304-15.872t-6.656-31.232l0-32.768q0-13.312 0.512-25.6t0.512-25.6l0-29.696q0-16.384-4.096-25.088t-19.456-8.704q-6.144-1.024-16.896-1.536t-22.016-1.024-21.504-0.512l-16.384 0q-21.504 0-25.6-13.312t13.312-33.792q17.408-21.504 37.376-46.592t39.424-50.688 37.376-49.664 33.28-41.472q27.648-30.72 53.248 1.024 15.36 17.408 35.84 45.056t41.984 57.856 40.96 58.368 31.744 46.592z"  horiz-adv-x="1024" />
      
      <glyph glyph-name="mf-patrol-manage" unicode="&#59246;" d="M724.642 294.041c-175.652 0-270.069-189.005-270.069-189.005s94.545-189.091 270.069-189.091c162.126 0 270.069 189.133 270.069 189.133S893.467 294.084 724.64 294.084z m0-114.726c40.531 0 74.237-33.748 74.237-74.237 0-40.531-33.706-74.237-74.237-74.237-40.49 0-74.237 33.706-74.237 74.237 0 6.699 0 20.309 6.741 27.007l67.496-27.007-20.309 74.237h20.309z m0-189.133c-60.798 0-114.726 54.099-114.726 114.768 0 60.798 54.056 114.726 114.768 114.726 60.755 0 114.726-54.056 114.726-114.768 0-60.627-47.23-114.726-114.768-114.726zM878.833 830.424a84.178 84.178 0 0 1-59.731 25.044H693.667C688.931 882.091 666.106 895.958 643.536 895.958h-324.04c-22.527 0-45.353-13.867-50.089-40.49H130.405a83.623 83.623 0 0 1-59.73-25.044 84.178 84.178 0 0 1-25.088-59.73V-19.29c0-22.442 8.832-43.646 25.087-59.73 16.085-16.128 37.29-25.088 59.731-25.088h369.777l-17.92 18.09c-26.025 25.983-38.654 51.283-51.965 78.205l-2.901 5.802H164.153c-14.933 0-29.908 9.216-29.908 29.909V736.903c0 14.506 15.402 29.95 29.908 29.95h104.23v-8.831c0-26.24 24.789-51.07 51.028-51.07h324.168c25.342 0 51.07 17.578 51.07 51.07v2.133h84.007c2.986 0 14.079-4.906 19.497-10.453l3.03-3.03h2.773a21.204 21.204 0 0 0 4.48-9.77V376.47l8.063-1.963c22.783-5.674 48.638-17.407 70.952-32.297l16.34-10.965V770.693a82.983 82.983 0 0 1-24.916 59.731zM721.485 617.014l-462.744-0.768a40.617 40.617 0 0 1-40.233-40.531c0-22.271 18.047-40.319 40.361-40.319l462.616 0.939a40.361 40.361 0 1 1 0 80.68zM538.196 460.477l-279.455-0.768a40.617 40.617 0 0 1-40.233-40.532c0-22.27 18.047-40.318 40.361-40.318l279.327 0.896a40.361 40.361 0 1 1 0 80.722zM258.741 290.884a40.617 40.617 0 0 1-40.233-40.49c0-22.27 18.047-40.36 40.361-40.36l150.053 0.939a40.361 40.361 0 1 1-0.128 80.722l-150.053-0.811z"  horiz-adv-x="1024" />
      
      <glyph glyph-name="mf-data-analysis" unicode="&#59241;" d="M138.545 130.175h95.53c16.662 0 30.166 13.507 30.166 30.165V586.035c0 16.663-13.506 30.167-30.167 30.167h-95.529c-16.662 0-30.167-13.506-30.167-30.167v-425.693c-0.002-16.66 13.505-30.167 30.167-30.167z m306.89 0h95.53c16.662 0 30.167 19.745 30.167 44.104V796.674c0 24.361-13.507 44.108-30.167 44.108h-95.53c-16.66 0-30.166-19.747-30.166-44.108v-622.395c0-24.36 13.504-44.104 30.167-44.104z m306.892 0h95.529c16.662 0 30.167 18.346 30.167 40.987V749.517c0 22.636-13.507 40.984-30.167 40.984h-95.53c-16.662 0-30.166-18.348-30.166-40.984v-578.355c-0.002-22.639 13.504-40.987 30.167-40.987zM6.144 79.897h968.704v-50.279H6.144v50.279z"  horiz-adv-x="1024" />
      
      <glyph glyph-name="mf-patrol-manage-new" unicode="&#59243;" d="M724.642 294.041c-175.652 0-270.069-189.005-270.069-189.005s94.545-189.091 270.069-189.091c162.126 0 270.069 189.133 270.069 189.133S893.467 294.084 724.64 294.084z m0-114.726c40.531 0 74.237-33.748 74.237-74.237 0-40.531-33.706-74.237-74.237-74.237-40.49 0-74.237 33.706-74.237 74.237 0 6.699 0 20.309 6.741 27.007l67.496-27.007-20.309 74.237h20.309z m0-189.133c-60.798 0-114.726 54.099-114.726 114.768 0 60.798 54.056 114.726 114.768 114.726 60.755 0 114.726-54.056 114.726-114.768 0-60.627-47.23-114.726-114.768-114.726zM878.833 830.424a84.178 84.178 0 0 1-59.731 25.044H693.667C688.931 882.091 666.106 895.958 643.536 895.958h-324.04c-22.527 0-45.353-13.867-50.089-40.49H130.405a83.623 83.623 0 0 1-59.73-25.044 84.178 84.178 0 0 1-25.088-59.73V-19.29c0-22.442 8.832-43.646 25.087-59.73 16.085-16.128 37.29-25.088 59.731-25.088h369.777l-17.92 18.09c-26.025 25.983-38.654 51.283-51.965 78.205l-2.901 5.802H164.153c-14.933 0-29.908 9.216-29.908 29.909V736.903c0 14.506 15.402 29.95 29.908 29.95h104.23v-8.831c0-26.24 24.789-51.07 51.028-51.07h324.168c25.342 0 51.07 17.578 51.07 51.07v2.133h84.007c2.986 0 14.079-4.906 19.497-10.453l3.03-3.03h2.773a21.204 21.204 0 0 0 4.48-9.77V376.47l8.063-1.963c22.783-5.674 48.638-17.407 70.952-32.297l16.34-10.965V770.693a82.983 82.983 0 0 1-24.916 59.731zM721.485 617.014l-462.744-0.768a40.617 40.617 0 0 1-40.233-40.531c0-22.271 18.047-40.319 40.361-40.319l462.616 0.939a40.361 40.361 0 1 1 0 80.68zM538.196 460.477l-279.455-0.768a40.617 40.617 0 0 1-40.233-40.532c0-22.27 18.047-40.318 40.361-40.318l279.327 0.896a40.361 40.361 0 1 1 0 80.722zM258.741 290.884a40.617 40.617 0 0 1-40.233-40.49c0-22.27 18.047-40.36 40.361-40.36l150.053 0.939a40.361 40.361 0 1 1-0.128 80.722l-150.053-0.811z"  horiz-adv-x="1024" />
      
      <glyph glyph-name="mf-cover-manage-sy" unicode="&#59244;" d="M289.89 475.965a239.543 239.543 0 0 0 52.175 77.97 239.543 239.543 0 0 0 123.05 65.829l-12.239 61.489A301.739 301.739 0 0 1 297.74 598.26a301.739 301.739 0 0 1-82.993-155.136l61.49-12.24a238.324 238.324 0 0 0 13.653 45.105z m52.175-261.9a239.738 239.738 0 0 0-65.829 123.002l-61.489-12.19a302.178 302.178 0 0 1 82.969-155.137A302.08 302.08 0 0 1 452.9 86.7l12.19 61.537a238.275 238.275 0 0 0-123.026 65.829zM726.26 598.26a301.934 301.934 0 0 1-155.136 82.993l-12.19-61.49a239.714 239.714 0 0 0 123.001-65.852 239.665 239.665 0 0 0 65.829-122.978L809.3 443.1a301.69 301.69 0 0 1-17.286 56.857 301.397 301.397 0 0 1-65.755 98.304z m7.826-306.274a237.544 237.544 0 0 0-52.175-77.921 238.153 238.153 0 0 0-122.953-65.829l12.141-61.537c19.48 3.9 38.522 9.655 56.881 17.286a300.837 300.837 0 0 1 98.255 65.73 301.568 301.568 0 0 1 83.066 155.186l-61.537 12.141a241.128 241.128 0 0 0-13.654-45.056zM679.18 384A167.4 167.4 0 0 1 512 551.18 167.4 167.4 0 0 1 344.82 384 167.4 167.4 0 0 1 512 216.82 167.4 167.4 0 0 1 679.18 384zM512 279.528A104.594 104.594 0 0 0 407.528 384 104.594 104.594 0 0 0 512 488.472 104.619 104.619 0 0 0 616.472 384 104.594 104.594 0 0 0 512 279.528z m438.565 99.06c0.048 1.804 0.292 3.559 0.292 5.412 0 242.005-196.852 438.857-438.857 438.857S73.143 626.005 73.143 384c0-1.853 0.244-3.608 0.292-5.413-0.048-0.487-0.292-0.877-0.292-1.39 0-0.804 0.414-1.462 0.487-2.291C78.507 137.143 273.067-54.857 512-54.857s433.493 192 438.37 429.763c0.073 0.829 0.487 1.463 0.487 2.292 0 0.487-0.244 0.902-0.292 1.39zM550.156 9.751v21.066a31.354 31.354 0 0 1-62.708 0v-21.748c-183.271 11.898-331.337 155.258-349.671 336.75h21.065a31.354 31.354 0 0 1 0 62.707h-21.748c12.19 187.782 162.572 338.164 350.354 350.355v-21.748a31.354 31.354 0 0 1 62.708 0v21.065c181.492-18.335 324.852-166.4 336.75-349.672h-21.748a31.354 31.354 0 0 1 0-62.708h21.065c-17.895-177.005-159.061-318.171-336.067-336.067z"  horiz-adv-x="1024" />
      
      <glyph glyph-name="form-input" unicode="&#59238;" d="M841.228367 832.88194c41.778339-0.675826 75.590123-33.299794 76.306908-73.828879v-145.6098a8.970055 8.970055 0 0 0-2.068437-5.795721L620.847627 251.098085l-0.348153-0.430071-10.813217-13.823715c-0.225275-0.98302-0.573428-1.986519-0.696306-2.990019l-24.411657-173.359629c-2.396111-17.264284 14.397143-31.04704 31.53855-25.927145l176.083413 58.571593c1.372132 0.552949 2.641866 1.208295 3.932079 1.986519l12.861175 12.12391 91.850908 103.8929c5.631884 6.758261 16.916132 2.887621 16.916131-5.775241v-258.329398C917.658152-94.453837 882.883829-127.978906 839.938153-127.978906H159.606568c-42.802318-0.102398-77.556162 33.525069-77.65856 74.955256V759.032582c0.819183 41.532584 36.248853 74.627583 79.13309 73.828879 41.778339-0.778224 75.631082-33.402192 76.347867-73.828879v-46.652479H762.259114V759.053061c0.819183 41.409707 36.023578 74.484226 78.948773 73.828879zM450.191302 94.695547H193.786984c-17.161886 0-31.088-13.475562-31.087999-30.043541 0-16.588458 13.926113-30.10498 31.06752-30.10498h256.404318c17.141407 0.040959 31.06752 13.516522 31.06752 30.10498 0 16.588458-13.926113 30.043541-31.047041 30.043541z m197.136419 105.101195c0.204796 1.331173 1.94556 2.006999 3.112896 1.126377l95.598671-74.832379a1.781723 1.781723 0 0 0-0.307194-3.112896c-0.49151-0.204796-0.942061-0.327673-1.413091-0.552948l-99.899382-39.095515c-7.679842-3.092416-15.974071 3.235773-14.601939 11.263768z m270.330431 321.222183c8.27375 9.563963 23.346719 10.465064 33.811784 2.109396l63.302376-50.768874c10.465064-8.335188 12.308226-23.060005 4.013997-32.623968l-253.516697-298.387453a6.860659 6.860659 0 0 0-9.318208-0.880622l-91.953306 71.903799a6.246271 6.246271 0 0 0-0.901102 9.031494zM450.191302 266.048177H193.786984c-17.161886 0-31.088-13.475562-31.087999-30.043541 0-16.608938 13.926113-30.064021 31.06752-30.064021h256.404318c17.141407 0 31.06752 13.455083 31.06752 30.064021 0 16.588458-13.926113 30.043541-31.047041 30.043541zM435.773679 691.204219L266.243732 448.521218h77.208009l-19.660395-173.31867 169.42755 242.683001h-77.105612l19.660395 173.31867z m200.49507 204.795781c35.101997-1.126377 62.708468-29.715868 61.561612-63.773406-1.146856-32.419172-28.057022-58.469196-61.561612-59.595573H362.948299c-35.224874-1.208295-64.797385 25.517554-65.944241 59.575093C295.734324 866.284132 323.361275 894.873623 358.56567 896h277.703079z"  horiz-adv-x="1024" />
      
      <glyph glyph-name="light-sys" unicode="&#59239;" d="M512.02048 896h-0.69632C295.87456 895.5904 121.07776 721.22368 122.90048 508.60032c1.024-112.10752 50.66752-212.7872 129.20832-282.4192 51.65056-45.7728 81.57184-110.7968 81.57184-179.28192v-56.99584c0-65.10592 53.49376-117.90336 119.43936-117.90336h117.76c65.9456 0 119.48032 52.79744 119.48032 117.90336V46.8992c0 68.608 29.98272 133.61152 81.65376 179.48672C851.2512 296.69376 901.12 398.60224 901.12 512 901.12 724.09088 726.9376 896 512.02048 896z m64.83968-911.99488h-129.67936a16.2816 16.2816 0 0 0-11.44832 4.7104 15.85152 15.85152 0 0 0-4.77184 11.28448 16.1792 16.1792 0 0 0 16.19968 15.99488h129.72032c4.28032 0 8.3968-1.67936 11.4688-4.7104a15.85152 15.85152 0 0 0 4.75136-11.28448 16.15872 16.15872 0 0 0-16.22016-15.99488z m0 64h-129.67936a16.2816 16.2816 0 0 0-11.44832 4.7104 15.85152 15.85152 0 0 0-4.77184 11.28448 16.1792 16.1792 0 0 0 16.19968 15.99488h129.72032c4.28032 0 8.3968-1.67936 11.4688-4.7104a15.85152 15.85152 0 0 0 4.75136-11.28448 16.15872 16.15872 0 0 0-16.22016-15.99488z m16.22016 64h-162.0992a16.2816 16.2816 0 0 0-11.4688 4.7104 15.85152 15.85152 0 0 0-4.77184 11.28448 16.1792 16.1792 0 0 0 16.22016 15.99488h162.14016c4.25984 0 8.3968-1.67936 11.44832-4.7104a15.85152 15.85152 0 0 0 4.75136-11.28448 16.15872 16.15872 0 0 0-16.19968-15.99488h-0.02048z m-55.9104 159.98976l19.6608 173.30176h-77.2096l169.51296 242.70848-19.6608-173.30176H706.56L537.14944 271.9744z"  horiz-adv-x="1024" />
      
      <glyph glyph-name="tips" unicode="&#59237;" d="M512 832a448 448 0 1 1 0-896A448 448 0 0 1 512 832z m32-664a8 8 0 0 0-8-8h-48a8 8 0 0 0-8 8v272c0 4.416 3.584 8 8 8h48c4.416 0 8-3.584 8-8v-272zM512 512a48 48 0 1 0 0 96A48 48 0 0 0 512 512z"  horiz-adv-x="1024" />
      
      <glyph glyph-name="surface" unicode="&#59508;" d="M341.333333 341.33333300000004a128 128 0 0 0 128-128v-106.666666a128 128 0 0 0-128-128h-106.666666a128 128 0 0 0-128 128v106.666666a128 128 0 0 0 128 128h106.666666z m448 0a128 128 0 0 0 128-128v-106.666666a128 128 0 0 0-128-128h-106.666666a128 128 0 0 0-128 128v106.666666a128 128 0 0 0 128 128h106.666666zM341.333333 789.333333a128 128 0 0 0 128-128v-106.666666a128 128 0 0 0-128-128h-106.666666a128 128 0 0 0-128 128v106.666666a128 128 0 0 0 128 128h106.666666z m448 0a128 128 0 0 0 128-128v-106.666666a128 128 0 0 0-128-128h-106.666666a128 128 0 0 0-128 128v106.666666a128 128 0 0 0 128 128h106.666666z"  horiz-adv-x="1024" />
      
      <glyph glyph-name="key-area" unicode="&#59236;" d="M32 744l315.96 120 320.76-120L992 864v-849.42L668.72-96l-289.68 110.58L32-96V744z m360-22.5v-605.22l246.54-79.62V641.88L392 721.5z"  horiz-adv-x="1024" />
      
      <glyph glyph-name="vehicle-new" unicode="&#59235;" d="M853.333333 611.555556h-170.666666V782.222222H0v-682.666666h113.777778a113.777778 113.777778 0 0 1 227.555555 0h341.333334a113.777778 113.777778 0 0 1 227.555555 0h113.777778v170.666666zM227.555556 42.66666699999996a56.888889 56.888889 0 1 0 56.888888 56.888889 56.888889 56.888889 0 0 0-56.888888-56.888889z m568.888888 0a56.888889 56.888889 0 1 0 56.888889 56.888889 56.888889 56.888889 0 0 0-56.888889-56.888889z m-113.777777 227.555555V497.777778h113.777777l113.777778-227.555556z"  horiz-adv-x="1024" />
      
      <glyph glyph-name="workbench" unicode="&#59234;" d="M262.70299781 850.03377778a216.73677558 216.73677558 0 1 1 0-433.53568901h184.23868681a32.49808877 32.49808877 0 0 1 32.56022661 32.56022661V633.2970021900001A216.73677558 216.73677558 0 0 1 262.70299781 850.03377778z m0-932.06755556a216.73677558 216.73677558 0 0 0 0 433.53568901h184.23868681c18.01997275 0 32.56022661-14.6023917 32.56022661-32.56022661v-184.23868681A216.73677558 216.73677558 0 0 0 262.70299781-82.03377778000004z m498.59400438 932.06755556a216.73677558 216.73677558 0 0 0 0-433.53568901h-184.23868681a32.49808877 32.49808877 0 0 0-32.56022661 32.56022661V633.2970021900001A216.73677558 216.73677558 0 0 0 761.29700219 850.03377778z m0-932.06755556a216.73677558 216.73677558 0 0 1 0 433.53568901h-184.23868681a32.49808877 32.49808877 0 0 1-32.56022661-32.56022661v-184.23868681a216.73677558 216.73677558 0 0 1 216.79891342-216.73677559z"  horiz-adv-x="1024" />
      
      <glyph glyph-name="server-update" unicode="&#59715;" d="M1024 384c0-282.8-229.2-512-512-512S0 101.20000000000005 0 384 229.2 896 512 896c115.1 0 221.4-38 306.9-102.1 2.7-2 5.3-4 8-6.1 2.9-2.3 7.1-2.2 10 0.1l56.3 46.3c4.8 3.9 12 1.2 13-4.9l33.7-202.5c2-12.1-9.9-21.9-21.4-17.6l-192.2 72.1c-5.8 2.2-7 9.8-2.3 13.7l49.4 40.7c4 3.3 3.9 9.6-0.4 12.7l-5.1 3.6c-25.4 17.7-52.7 32.8-81.5 44.9C631.2 820.2 572.5 832 512 832S392.8 820.2 337.6 796.8c-53.3-22.6-101.3-54.9-142.4-96-41.2-41.2-73.5-89.1-96-142.4C75.8 503.2 64 444.5 64 384s11.8-119.2 35.2-174.4c22.6-53.3 54.9-101.3 96-142.4 41.2-41.2 89.1-73.5 142.4-96C392.8-52.200000000000045 451.5-64 512-64s119.2 11.8 174.4 35.2c53.3 22.6 101.3 54.9 142.4 96 41.2 41.2 73.5 89.1 96 142.4C948.2 264.79999999999995 960 323.5 960 384s-11.8 119.2-35.2 174.4c-0.2 0.6-0.5 1.1-0.7 1.6-2.3 5.4-4.7 10.7-7.2 16h69.9c2.1-5.3 4.2-10.6 6.2-16 20-54.9 31-114.2 31-176zM768 637.6c-58.4 36.4-151.3 60-256 60s-197.6-23.6-256-60c-40.1-25-63.9-56.1-64-89.8v-340.2c0-82.8 143.3-150 320-150s320 67.2 320 150v340c0 33.7-23.8 64.9-64 90z m0-430c0-8.3-15.5-28.7-56.9-48.1-24.3-11.4-54.4-20.9-87-27.3-35.4-7-73.1-10.6-112.1-10.6s-76.8 3.6-112.1 10.6c-32.6 6.5-62.7 15.9-87 27.3-41.4 19.4-56.9 39.8-56.9 48.1v24.3c58.4-36.4 151.3-60 256-60s197.6 23.6 256 60v-24.3z m0 114.3c0-8.3-15.5-28.7-56.9-48.1-24.3-11.4-54.4-20.9-87-27.3-35.4-7-73.1-10.6-112.1-10.6s-76.8 3.6-112.1 10.6c-32.6 6.5-62.7 15.9-87 27.3-41.4 19.4-56.9 39.8-56.9 48.1v24.3c58.4-36.4 151.3-60 256-60s197.6 23.6 256 60v-24.3z m0 114.2c0-8.3-15.5-28.7-56.9-48.1-24.3-11.4-54.4-20.9-87-27.3-35.4-7-73.1-10.6-112.1-10.6s-76.8 3.6-112.1 10.6c-32.6 6.5-62.7 15.9-87 27.3-41.4 19.4-56.9 39.8-56.9 48.1v21.4c58.4-36.4 151.3-60 256-60s197.6 23.6 256 60v-21.4z m-56.9 63.4c-24.3-11.4-54.4-20.9-87-27.3-35.4-7-73.1-10.6-112.1-10.6s-76.8 3.6-112.1 10.6c-32.6 6.5-62.7 15.9-87 27.3-41.4 19.4-56.9 39.8-56.9 48.1s15.5 28.7 56.9 48.1c24.3 11.4 54.4 20.9 87 27.3 35.4 7 73.1 10.6 112.1 10.6s76.8-3.5 112.1-10.6c32.6-6.5 62.7-15.9 87-27.3 41.5-19.4 56.9-39.8 56.9-48.1s-15.4-28.7-56.9-48.1z"  horiz-adv-x="1024" />
      
      <glyph glyph-name="pipe-corridor-copy" unicode="&#60499;" d="M952.691936 50.78333759999998V384c0 73.59617493-60.67729707 133.23770133-135.55405973 133.23770133H546.0485888v66.62826667h-67.7770304v-66.62826667H342.51034453V717.2166624H71.308064V384c0-73.59617493 60.67729707-133.23770133 135.55405973-133.23770133h271.08928747v-66.62826667h67.7770304v66.62826667h135.55405973v-199.97896107H952.67310293zM3.53103467 817.1402304h406.75634026v-66.62826667H3.53103467V817.1402304z m610.1815904-799.65219413H1020.46896533V-49.14023039999995H613.71262507v66.62826667z"  horiz-adv-x="1024" />
      
      <glyph glyph-name="pipe-corridor" unicode="&#59232;" d="M925.14869 71.60937899999999V384c0 68.996414-56.884966 124.910345-127.081931 124.910345H543.920552v62.464h-63.540966v-62.464H353.103448V696.390621H98.85131V384c0-68.996414 56.884966-124.910345 127.081931-124.910345h254.146207v-62.464h63.540966v62.464h127.081931v-187.480276H925.131034zM35.310345 790.068966h381.334069v-62.464H35.310345V790.068966z m572.045241-749.673932H988.689655V-22.068966000000046H607.355586v62.464z"  horiz-adv-x="1024" />
      
      <glyph glyph-name="pedestrian-walkway" unicode="&#59233;" d="M347.895172 233.47199999999998a3370.142897 3370.142897 0 0 1-31.602758-73.657379c-4.625655-21.327448 8.050759-46.203586 46.11531-46.203587A503.77269 503.77269 0 0 1 340.744828 30.896552000000042h-104.094897l63.911724 202.575448h47.333517z m208.030897 0L569.908966 30.896552000000042H455.856552l15.324689 202.575448h84.744828z m349.448828 0L1024 30.896552000000042h-133.773241l-81.054897 202.575448h96.203035z m-695.154759 0L130.065655 30.896552000000042H0l118.113103 202.575448h92.107035z m514.401103 0L783.713103 30.896552000000042h-105.966344l-16.790069 112.781241c7.344552-7.662345 12.941241-13.771034 16.772413-18.361379 32.044138-27.012414 74.910897 6.867862 55.578483 44.967724-7.326897 14.265379-21.062621 35.310345-41.224827 63.187862h32.538482zM545.774345 646.355862l131.354483-124.822069c12.023172-45.550345 20.709517-79.783724 26.041379-102.700138 0-17.725793-36.563862-33.015172-43.661241 0-6.144 22.916414-11.776 51.129379-16.948966 84.638897l-55.437241 39.000276-8.421518-123.639173 45.956414-113.522758c40.094897-57.326345 72.792276-104.871724 98.109793-142.600828 9.76331-23.834483-21.345103-43.572966-37.95862-31.232-28.16 35.063172-63.540966 81.072552-106.107587 138.063448l-55.031172 100.705104-69.508414-80.754759c-30.437517-65.288828-54.854621-115.500138-73.233655-150.616276-20.603586-28.813241-61.44-7.397517-52.224 23.834483 13.029517 23.446069 33.933241 70.991448 62.711172 142.618483l86.863449 127.735172-10.469518 88.470069-39.547586-35.751724c-31.549793-21.715862-58.226759-39.282759-80.013241-52.718345-27.188966 0-27.188966 20.144552-19.544276 31.373242a6061.497379 6061.497379 0 0 0 79.801379 57.096827l83.597242 95.073104 53.671724 29.748965zM492.084966 754.758621c29.643034 0 53.671724-24.258207 53.671724-54.20138 0-29.925517-24.02869-54.201379-53.671724-54.201379-29.625379 0-53.636414 24.275862-53.636414 54.201379 0 29.943172 24.011034 54.201379 53.636414 54.20138z"  horiz-adv-x="1024" />
      
      <glyph glyph-name="top-btn" unicode="&#59228;" d="M656.822857-75.26400000000001H367.908571V433.371429H146.285714L515.291429 749.714286l369.078857-316.342857H656.822857zM0 896h1024v-146.285714H0z"  horiz-adv-x="1024" />
      
      <glyph glyph-name="down-btn" unicode="&#59229;" d="M677.12 896H340.053333v-593.408H81.493333l430.506667-369.066667 430.592 369.066667H677.12z"  horiz-adv-x="1024" />
      
      <glyph glyph-name="up-btn" unicode="&#59230;" d="M677.077333-66.47466699999995H340.010667V526.933333H81.450667L511.957333 896l430.592-369.066667H677.077333z"  horiz-adv-x="1024" />
      
      <glyph glyph-name="bottom-btn" unicode="&#59231;" d="M707.347692 896H396.209231v-547.761231H157.538462l397.390769-340.676923 397.469538 340.676923H707.347692zM0 29.53846199999998h1102.769231v-157.538462H0z"  horiz-adv-x="1102" />
      
      <glyph glyph-name="youjiantou" unicode="&#59224;" d="M320 175.808V592.192a25.6 25.6 0 0 0 39.808 21.248L672 405.312a25.6 25.6 0 0 0 0-42.624l-312.32-208.128A25.6 25.6 0 0 0 320 175.808z"  horiz-adv-x="1024" />
      
      <glyph glyph-name="zuojiantou" unicode="&#59225;" d="M740.8 175.808V592.192a25.6 25.6 0 0 1-39.808 21.248L388.736 405.312a25.6 25.6 0 0 1 0-42.624l312.32-208.128a25.6 25.6 0 0 1 39.744 21.248z"  horiz-adv-x="1088" />
      
      <glyph glyph-name="workbench-2" unicode="&#59226;" d="M512 384m-512 0a512 512 0 1 1 1024 0 512 512 0 1 1-1024 0ZM312.874667 670.208h398.250666v-522.666667H312.874667zM723.541333 135.125333H300.458667V682.666667h423.082666v-547.541334z m-398.208 24.874667h373.333334V657.792h-373.333334V160zM288 620.458667h448v-522.666667H288zM748.458667 85.333333H275.541333V632.874667h472.917334V85.333333z m-448 24.874667h423.082666V608H300.458667v-497.792zM263.125333 570.666667h497.749334v-472.874667H263.125333zM773.333333 85.333333H250.666667V583.125333h522.666666V85.333333z m-497.792 24.874667h472.917334v448H275.541333v-448zM387.541333 471.125333h248.917334v-24.917333H387.541333v24.917333z m0-149.333333h99.584v-24.917333H387.541333v24.917333z m0-87.125333h199.125334v-24.874667H387.541333V234.666667z m0 161.792h149.333334v-24.917334h-149.333334v24.917334z"  horiz-adv-x="1024" />
      
      <glyph glyph-name="workbench-1" unicode="&#59227;" d="M512 384m-512 0a512 512 0 1 1 1024 0 512 512 0 1 1-1024 0ZM738.645333 85.546667H285.354667c-37.504 0-68.224 30.72-68.224 68.266666V556.714667c0 37.504 30.72 68.266667 68.266666 68.266666h453.248c37.504 0 68.224-30.762667 68.224-68.266666v-402.986667c0-37.888-30.72-68.224-68.266666-68.224zM285.354667 584.277333a27.605333 27.605333 0 0 1-27.52-27.52v-402.986666c0-15.146667 12.373333-27.52 27.52-27.52h453.290666c15.146667 0 27.52 12.373333 27.52 27.52V556.8a27.605333 27.605333 0 0 1-27.52 27.52H285.354667zM387.498667 530.432a20.437333 20.437333 0 0 0-20.352 20.352V662.101333c0 11.178667 9.216 20.352 20.352 20.352 11.178667 0 20.352-9.173333 20.352-20.352v-111.36a20.437333 20.437333 0 0 0-20.352-20.309333z m248.96 0a20.437333 20.437333 0 0 0-20.309334 20.352V662.101333c0 11.178667 9.173333 20.352 20.309334 20.352 11.178667 0 20.352-9.173333 20.352-20.352v-111.36a20.437333 20.437333 0 0 0-20.309334-20.309333z m48.298666-172.373333h-171.946666a20.437333 20.437333 0 0 0-20.352 20.352c0 11.178667 9.173333 20.352 20.352 20.352h171.946666c11.178667 0 20.352-9.173333 20.352-20.352a20.437333 20.437333 0 0 0-20.352-20.352z m0-122.453334H379.136a20.437333 20.437333 0 0 0-20.352 20.309334c0 11.178667 9.173333 20.352 20.352 20.352h305.621333c11.178667 0 20.352-9.173333 20.352-20.352a20.437333 20.437333 0 0 0-20.352-20.352z"  horiz-adv-x="1024" />
      
      <glyph glyph-name="guanli" unicode="&#59223;" d="M758.07366095 173.0625c19.40625001 0 35.19642892-15.72991094 35.1964281-35.13616094v-35.19642811H933.875v-70.27232189h-140.60491094v-35.19642811a35.13616094 35.13616094 0 0 0-35.19642811-35.13616095H617.46875001a35.13616094 35.13616094 0 0 0-35.13616095 35.13616095v140.66517811c0 19.40625001 15.66964297 35.13616094 35.13616093 35.13616094h140.60491095zM512 102.72991094999998v-70.27232189H90.125v70.27232189h421.875zM265.92633905 489.46875001c19.40625001 0 35.13616094-15.72991094 35.13616095-35.13616095v-140.66517812a35.13616094 35.13616094 0 0 0-35.13616095-35.13616095H125.26116095A35.13616094 35.13616094 0 0 0 90.125 313.66741093999997V454.33258906c0 19.40625001 15.72991094 35.13616094 35.13616094 35.13616095h140.66517812zM933.875 419.13616094v-70.27232188H371.39508906V419.13616094H933.875zM265.92633905 805.875c19.40625001 0 35.13616094-15.72991094 35.13616095-35.13616094v-140.66517812a35.13616094 35.13616094 0 0 0-35.13616095-35.13616094H125.26116095A35.13616094 35.13616094 0 0 0 90.125 630.07366095V770.73883905C90.125 790.14508905 105.85491095 805.875 125.26116095 805.875h140.66517811zM933.875 735.54241095v-70.27232189H371.39508906V735.54241095H933.875z"  horiz-adv-x="1024" />
      
      <glyph glyph-name="left" unicode="&#59221;" d="M748.307692 732.553846v-697.107692c0-19.692308-25.6-33.476923-43.323077-17.723077L287.507692 358.4c-15.753846 11.815385-15.753846 37.415385 0 49.230769L704.984615 752.246154c17.723077 13.784615 43.323077 1.969231 43.323077-19.692308z"  horiz-adv-x="1024" />
      
      <glyph glyph-name="right1" unicode="&#59222;" d="M275.692308 35.446154V732.553846c0 19.692308 25.6 33.476923 43.323077 17.723077l417.476923-340.676923c15.753846-11.815385 15.753846-37.415385 0-49.230769L319.015385 15.753846c-17.723077-13.784615-43.323077-1.969231-43.323077 19.692308z"  horiz-adv-x="1024" />
      
      <glyph glyph-name="zhibanrenyuan" unicode="&#59220;" d="M756.1728 348.928a209.92 209.92 0 1 1 0-419.84 209.92 209.92 0 0 1 0 419.84z m129.6896-234.5984a34.9696 34.9696 0 0 0-24.7296-10.24h-104.96a35.1232 35.1232 0 0 0-34.9696 34.9696v139.9296c0 19.2512 15.7696 34.9696 34.9696 34.9696 9.6768 0 18.3808-3.8912 24.6784-10.24a34.816 34.816 0 0 0 10.2912-24.6784v-104.96h69.9392a35.1232 35.1232 0 0 0 24.7808-59.7504z m0 0M261.3248 603.5968a235.2128 235.2128 0 1 1 470.6304 0 235.3152 235.3152 0 0 1-470.6304 0z m0 0M498.2272 30.0032c10.0864-23.808 23.296-45.8752 39.3216-65.8432H90.0096a33.4848 33.4848 0 0 0-33.536 32.256v3.9424a437.248 437.248 0 0 0 193.3824 353.8432 67.7376 67.7376 0 0 0 75.9808-0.4096 299.52 299.52 0 0 1 203.264-51.0976 278.8352 278.8352 0 0 1-52.8384-163.6352c0.0512-37.8368 7.4752-74.3936 21.9648-109.056z m0 0"  horiz-adv-x="1024" />
      
      <glyph glyph-name="fuwuguanli" unicode="&#59218;" d="M860.7 546.1c13.3-1.5 26.1-4.9 39.4-10.3s24.6-13.3 33.9-23.1c9.8-9.8 16.7-22.6 21.6-37.9 4.9-15.3 5.4-33 2-54.1v-1c-1.5-5.9-3.9-19.2-8.4-40.3-3.9-21.6-8.9-46.7-14.3-74.8-5.4-28-11.8-57.1-18.7-87.1-6.9-30-13.3-55.6-19.7-76.8-3.4-12.3-8.4-25.1-14.8-38.4-6.4-13.3-14.8-25.1-25.1-35.4-10.3-10.8-22.6-19.7-37.4-26.6-14.3-6.9-31.5-10.3-51.7-10.3H196c-14.3 0-29.5 3-44.8 9.3-15.3 6.4-30 14.8-42.8 26.6s-23.6 25.1-32 41.3c-8.4 16.2-12.3 34.4-12.3 54.1V604.2c0 41.8 11.3 74.8 33.9 98.4s54.7 35.4 96 35.4h507.7c15.3 0 31-3 46.7-8.9 16.2-5.9 31-13.8 43.8-24.1 13.3-10.3 23.6-22.1 32-35.9s12.3-28.5 12.3-44.3c0-6.4-4.9-11.3-11.3-11.3H783c-27.6 0-59.5 0-96.4 0.5s-76.3 0.5-117.6 0.5-80.7 0-116.6 0.5c-35.9 0.5-67.4 0.5-93.5 0.5h-47.7c-17.7 0-32-5.9-41.8-17.2-9.8-11.3-17.7-26.6-23.1-44.8-5.4-20.2-11.8-41.3-18.7-63.5s-13.3-43.3-18.7-62.5c-6.9-22.6-13.8-44.3-20.7-65.4 0-0.5 0-0.5-0.5-1-1.5-5.4-2-9.8-2-12.8 0-11.8 3.9-21.6 11.8-29.5 7.9-7.9 17.7-11.8 29.5-11.8 21.2 0 35.9 13.3 43.3 40.3l52.6 191.9c1.5 4.9 5.9 8.4 11.3 8.4 86.1-0.5 164.8-1 237.1-1l289.4-0.5z"  horiz-adv-x="1024" />
      
      <glyph glyph-name="yingxiaoguanli-dingdanguanli" unicode="&#59219;" d="M801.6 377.8c-26.3-11.6-47.7-21.4-70.9-31.8-12.8 6.1-28.7 18.3-46.5 22-62.4 12.2-122.3-42.2-119.8-105.2 0-9.8-8.6-25.1-17.1-28.1-32.4-11-47.1-34.2-48.9-64.8-1.8-47.7-5.5-97.2 56.3-115.6 4.9-1.2 6.7-11.6 9.8-17.7-7.3-3.7-15.3-11-22.6-11-82.5-0.6-165.1-0.6-247.6-0.6-37.9 0-75.8-0.6-113.7 0-48.3 1.2-66 20.2-66 67.9V734.3c0 44.6 17.1 63.6 62.4 64.2 187.7 0.6 375.4 0.6 563.2 0 39.7 0 60.5-19.6 61.1-63 1.5-119.8 0.3-240.3 0.3-357.7z m-340 337c0 0.6 0 0.6 0 0-57.5 0-115 0.6-172.4 0-28.1 0-51.4-22.6-50.8-47.1 1.2-25.1 22-43.4 50.8-43.4 111.9 0 223.2 0 335.1 0.6 34.9 0 50.1 17.1 49.5 49.5-0.6 25.1-19 39.7-49.5 39.7-54.5 1.3-108.3 0.7-162.7 0.7z m-91.1-260.5c29.3 0 58.7-1.2 87.4 0.6 23.2 1.2 41 14.1 43.4 39.1 3.1 28.1-15.3 48.9-39.1 50.1-61.1 3.1-122.9-1.2-184.1-3.1-28.7-0.6-39.1-23.2-38.5-45.9 0.6-26.3 19.6-41 47.1-41h83.8z m0 0M920.2 141.8c4.9-22-5.5-35.5-26.3-44-37.3-15.3-47.1-33-39.1-71.5 4.9-23.8-11.6-33.6-26.3-42.8-15.3-9.2-30.6-22-52-4.3-30 25.7-51.4 22-87.4 1.8-12.2-6.7-33-6.1-47.1-1.2-17.1 6.1-34.9 17.1-29.4 42.8 8.6 39.7-11 65.4-45.2 78.9-25.7 10.4-22 31.8-21.4 48.3 0.6 12.8 11 31.8 22 37.3 33.6 16.5 48.9 29.4 45.9 83.2-1.8 28.7 17.7 35.5 34.2 42.8 11 5.5 31.8 6.7 40.4 0 31.2-25.1 60.5-23.8 89.3-0.6 26.9 21.4 42.2-1.2 61.8-11.6 19-9.8 17.7-23.2 12.8-41-7.3-27.5 8.6-58.7 36.1-67.3 26.2-7.4 34.8-23.9 31.7-50.8zM653.6 151c-0.6-49.5 30-81.9 78.9-82.5 41-0.6 76.4 30.6 77.7 67.9 1.2 52.6-30 87.4-80.1 89.3-41 1.1-75.9-32.5-76.5-74.7z m0 0"  horiz-adv-x="1024" />
      
      <glyph glyph-name="zhihuizhongxin" unicode="&#59217;" d="M429.444849 885.786509h252.187731a20.42814 20.42814 0 0 0 16.424664-32.583202l-66.473896-89.904643 68.267361-90.02845a20.42814 20.42814 0 0 0-16.281187-32.767176H437.249313v-80.648052l298.559782-0.367949a36.159717 36.159717 0 0 0 36.15856-36.15856v-578.451334h26.959822v434.24984h109.639696a36.159717 36.159717 0 0 0 36.158559-36.15856v-398.09128h36.216414a36.15856 36.15856 0 1 0 0-72.295135H742.26441a36.363362 36.363362 0 0 0-6.456472-0.572751l-449.42255 0.572751H41.245394a36.15856 36.15856 0 0 0 0 72.295135h36.15856V342.98578A36.119219 36.119219 0 0 0 113.526645 379.123512h111.580108v-434.264882h25.12586V523.917427a36.155089 36.155089 0 0 0 36.15856 36.137733l89.578348-0.12265V865.358369a30.642788 30.642788 0 0 0 53.481114 20.42814z m98.322356-643.795926V414.259218L387.521747 192.612454l68.189837 8.909469v-184.225838l164.038369 242.892956-91.987376-18.200772z"  horiz-adv-x="1024" />
      
      <glyph glyph-name="shujuzhuanhuan" unicode="&#59216;" d="M81.279482 492.087355l1.601294 0.055217 1054.866326 0.110434h0.55217a54.112699 54.112699 0 0 1 54.057482 53.33966 52.732273 52.732273 0 0 1-23.246374 44.78102L775.026368 860.219358a55.051389 55.051389 0 0 1-74.211701-11.871663l-1.766945-2.374333a52.014451 52.014451 0 0 1-8.503424-39.424966 51.904017 51.904017 0 0 1 21.755513-33.903263l253.611863-173.712806H83.101645a53.450094 53.450094 0 0 1-1.822163-106.844972zM1137.471016 276.02307900000005H82.273389a54.112699 54.112699 0 0 1-54.057482-53.394877 52.897924 52.897924 0 0 1 23.301591-44.781019l394.028795-269.790456v-0.055217c9.276463-6.294743 20.099002-9.607765 31.308061-9.607765h0.165651a55.051389 55.051389 0 0 1 44.449717 22.528552l1.104341 1.546077a52.621839 52.621839 0 0 1-14.35643 72.996927l-253.611863 173.712806H1137.471016a53.450094 53.450094 0 0 1 0 106.844972z"  horiz-adv-x="1217" />
      
      <glyph glyph-name="ziyuan" unicode="&#59215;" d="M685.00246755 346.95461092000005a397.63745337 397.63745337 0 0 1-99.40936362 61.69080149 259.83897714 259.83897714 0 1 1-272.74710699 0c-166.71604053-70.99471417-286.91252224-268.22087907-286.9125211-499.81284466a33.52761003 33.52761003 0 0 1 33.52760889-33.52761003h419.0951242a314.15370525 314.15370525 0 0 0 206.44625862 471.6496532zM895.93247033 250.84652267a221.00719401 221.00719401 0 1 1 0-312.57784199 221.37554 221.37554 0 0 1 0 312.57784199z m-41.696691-270.88115099a162.07194201 162.07194201 0 1 0 0 229.18446 162.07194201 162.07194201 0 0 0 0-229.47913601zM835.45016833 124.94371666999996h-66.302159v66.302159a29.46762599 29.46762599 0 0 1-58.935252 0v-66.302159h-66.302158a29.46762599 29.46762599 0 0 1 0-58.935251h66.302158v-66.302159a29.46762599 29.46762599 0 0 1 58.935252 0v66.302159h66.302159a29.46762599 29.46762599 0 0 1 0 58.935251z"  horiz-adv-x="1024" />
      
      <glyph glyph-name="upload" unicode="&#59214;" d="M0.01152 362.688a210.88 210.88 0 0 0 173.12 209.664A296.576 296.576 0 0 0 469.32352 832c115.136 0 219.84-68.992 270.848-172.8 9.216 1.28 18.56 2.112 27.84 2.112 140.8 0 256-115.2 256-256s-115.2-256-256-256h-85.312c-25.6 0-42.688 17.088-42.688 42.688s17.088 42.688 42.688 42.688H768.01152c93.888 0 170.688 76.8 170.688 170.624C938.69952 499.2 861.89952 576 768.01152 576c-12.608 0-29.44 0-42.24-4.096-0.064-0.128-0.256-0.128-0.448-0.192-21.312-8.512-46.912 4.288-55.424 25.6-25.6 89.6-106.688 149.376-200.576 149.376A211.2 211.2 0 0 1 256.01152 533.312c0-23.232-14.08-39.488-35.904-42.24l-6.784-0.384c-72.512 0-128-55.488-128-128 0-69.248 50.56-122.944 118.208-127.68l9.792-0.32h128c25.6 0 42.688-17.088 42.688-42.688s-17.088-42.688-42.688-42.688h-128A211.2 211.2 0 0 0 0.01152 362.688zM512.01152 490.688c16.96 0 30.144-7.488 37.12-19.968l120.768-120.832a41.216 41.216 0 0 0 0-59.776 38.72 38.72 0 0 0-29.888-12.8 38.72 38.72 0 0 0-29.888 12.8l-55.488 55.552v-324.352c0-25.6-17.024-42.624-42.624-42.624s-42.688 17.024-42.688 42.624V345.664l-55.424-55.552a38.72 38.72 0 0 0-29.888-12.8 38.72 38.72 0 0 0-29.888 12.8 41.216 41.216 0 0 0 0 59.776L474.89152 470.592c6.976 12.544 20.16 20.096 37.184 20.096z"  horiz-adv-x="1024" />
      
      <glyph glyph-name="locate" unicode="&#59213;" d="M469.312 45.31200000000001a341.504 341.504 0 0 0-296 296H106.688a21.312 21.312 0 0 0-21.376 21.376v42.624a21.312 21.312 0 0 0 21.376 21.376h66.624a341.504 341.504 0 0 0 296 296V789.312a21.312 21.312 0 0 0 21.376 21.376h42.624a21.312 21.312 0 0 0 21.376-21.376v-66.624a341.504 341.504 0 0 0 296-296h66.624a21.312 21.312 0 0 0 21.376-21.376v-42.624a21.312 21.312 0 0 0-21.376-21.376h-66.624a341.504 341.504 0 0 0-296-296v-66.624a21.312 21.312 0 0 0-21.376-21.376h-42.624a21.312 21.312 0 0 0-21.376 21.376v66.624zM512 128a256 256 0 1 1 0 512 256 256 0 0 1 0-512z m0 128a128 128 0 1 0 0 256 128 128 0 0 0 0-256z"  horiz-adv-x="1024" />
      
      <glyph glyph-name="dr-patrol-record" unicode="&#59210;" d="M809.938539 848.000288c0 26.499873-22.216467 47.999712-49.654804 47.999712-27.43936 0-49.655827-21.498817-49.655827-47.999712l0-96.000447c0-26.499873 22.216467-48.000735 49.655827-48.000735 27.438338 0 49.654804 21.500862 49.654804 48.000735L809.938539 848.000288zM561.656338 848.000288c0 26.499873-22.250202 47.999712-49.654804 47.999712-27.407669 0-49.656849-21.499839-49.656849-47.999712l0-96.000447c0-26.499873 22.250202-48.000735 49.656849-48.000735 27.406647 0 49.654804 21.500862 49.654804 48.000735L561.656338 848.000288zM313.374137 848.000288c0 26.499873-22.218511 47.999712-49.656849 47.999712-27.437316 0-49.655827-21.499839-49.655827-47.999712l0-96.000447c0-26.499873 22.218511-48.000735 49.655827-48.000735 27.438338 0 49.656849 21.500862 49.656849 48.000735L313.374137 848.000288zM942.347943 800.001597l-82.752555 0 0-48.000735c0-53.031437-44.469736-96.000447-99.311654-96.000447-54.843963 0-99.312676 42.970032-99.312676 96.000447L660.971058 800.001597l-49.655827 0 0-48.000735c0-53.031437-44.467691-96.000447-99.311654-96.000447s-99.312676 42.970032-99.312676 96.000447L412.690902 800.001597 363.033031 800.001597l0-48.000735c0-53.031437-44.437022-96.000447-99.311654-96.000447-54.841918 0-99.312676 42.970032-99.312676 96.000447L164.408701 800.001597 81.656146 800.001597c-27.438338 0-49.656849-21.500862-49.656849-48.000735l0-832.00115c0-26.500896 22.218511-47.999712 49.656849-47.999712l860.691797 0c27.435271 0 49.651738 21.498817 49.651738 47.999712L991.999681 751.99984C992.000703 778.499713 969.783214 800.001597 942.347943 800.001597zM305.281668 25.414453999999978c0-22.490441-18.557681-40.700542-41.393657-40.700542-22.898336 0-41.425348 18.210101-41.425348 40.700542L222.462663 133.90323c0 22.457728 18.527012 40.667829 41.425348 40.667829 22.835976 0 41.393657-18.210101 41.393657-40.667829L305.281668 25.414453999999978zM470.918654 25.414453999999978c0-22.490441-18.528034-40.700542-41.394679-40.700542-22.898336 0-41.424325 18.210101-41.424325 40.700542l0 216.971418c0 22.45875 18.52599 40.670896 41.424325 40.670896 22.866645 0 41.394679-18.212146 41.394679-40.670896L470.918654 25.414453999999978zM636.55564 25.414453999999978c0-22.490441-18.495321-40.700542-41.393657-40.700542-22.866645 0-41.393657 18.210101-41.393657 40.700542L553.768327 350.87362499999995c0 22.490441 18.527012 40.701564 41.393657 40.701564 22.898336 0 41.393657-18.211123 41.393657-40.701564L636.55564 25.414453999999978zM802.224317 25.414453999999978c0-22.490441-18.52599-40.700542-41.424325-40.700542-22.838021 0-41.393657 18.210101-41.393657 40.700542L719.406335 459.38898c0 22.457728 18.555636 40.669873 41.393657 40.669873 22.897313 0 41.424325-18.212146 41.424325-40.669873L802.224317 25.414453999999978z"  horiz-adv-x="1024" />
      
      <glyph glyph-name="dr-patrol-alarm" unicode="&#59211;" d="M272.19968 794.39075555L202.50168889 864.08874667C86.01258667 775.38190222 9.00323555 637.44796445 1.69187555 481.48024889h97.4802489c7.31136 129.16053333 73.59715555 242.23744 173.02755555 312.91050666z m652.62819555-312.91050666h97.4802489c-7.31136 155.96771555-84.31957333 293.90165333-201.29564445 382.60849778l-69.69799111-69.69799112c99.91623111-70.67306667 166.20202667-183.74997333 173.51338666-312.91050666z m-96.01820444-24.37006222c0 149.63143111-103.81653333 274.89393778-243.69948444 308.03626666v33.14346667c0 40.45368889-32.65536 73.11018667-73.11018667 73.11018667-40.45368889 0-73.11018667-32.65536-73.11018667-73.11018667v-33.14346667c-139.88408889-33.14346667-243.69948445-158.40483555-243.69948444-308.03626666v-268.06954667l-97.48024889-97.48024889v-48.74012444h828.57984v48.74012444l-97.48024889 97.48024889V457.11018667zM512-103.40010667000001c6.82325333 0 13.15953778 0.48696889 19.49582222 1.95015112 31.68142222 6.33628445 58.00049778 28.26922667 70.18609778 57.51352888 4.87424 11.69749333 7.79832889 24.37006222 7.79832889 38.01770667H414.51975111c0-53.61550222 43.86588445-97.48138667 97.48024889-97.48138667z"  horiz-adv-x="1024" />
      
      <glyph glyph-name="dr-pipe-maintain" unicode="&#59502;" d="M1097.142857 676.571429v-548.571429a109.714286 109.714286 0 0 0-99.181714-109.202286L987.428571 18.285713999999984H292.571429v-146.285714H73.142857v256a109.714286 109.714286 0 0 0 99.181714 109.202286L182.857143 237.71428600000002H877.714286V676.571429h219.428571zM501.467429 817.444571a256.146286 256.146286 0 0 0 48.420571-294.765714L615.424 457.142857A73.142857 73.142857 0 0 0 512 353.71885699999996l-61.878857 61.878857a256.073143 256.073143 0 0 0-370.834286 306.834286l189.44-189.44 155.136 155.062857L234.422857 877.641143a256 256 0 0 0 266.971429-60.123429zM1097.142857 896v-146.285714h-219.428571V896h219.428571z"  horiz-adv-x="1097" />
      
      <glyph glyph-name="dr-patrol-plan" unicode="&#59212;" d="M245.0014811 846.69629668v-33.98163001A111.65392555 111.65392555 0 0 1 356.65540779 701.06074112h310.68918442a111.65392555 111.65392555 0 0 1 111.65392669 111.65392555V846.69629668h48.54518443a97.09036999 97.09036999 0 0 0 97.09037112-97.09037113v-776.7229622a97.09036999 97.09036999 0 0 0-97.09037112-97.09037114h-631.08740666a97.09036999 97.09036999 0 0 0-97.09037112 97.09037114V749.6059255499999a97.09036999 97.09036999 0 0 0 97.09037112 97.09037113h48.54518443z m404.18721223-352.92349668l-4.17488554-4.41761222-185.15133668-222.8224-85.68225223 100.58562445-4.22343111 4.36906667a48.54518557 48.54518557 0 0 1-73.30322887-62.47765333l3.64088889-4.8545189 123.11058887-144.5675611 4.12634112-4.27197667a48.54518557 48.54518557 0 0 1 66.11854222 0.43690666l4.07779555 4.3205211 221.94858667 267.24124445 3.59234333 4.95160888a48.54518557 48.54518557 0 0 1-74.07995222 61.50675001zM667.34459221 895.24148111a38.83614777 38.83614777 0 0 0 38.83614891-38.83614778v-43.69066666a38.83614777 38.83614777 0 0 0-38.83614891-38.83614777H356.65540779a38.83614777 38.83614777 0 0 0-38.83614891 38.83614777v43.69066666a38.83614777 38.83614777 0 0 0 38.83614891 38.83614778h310.68918442z"  horiz-adv-x="1024" />
      
      <glyph glyph-name="us-operation-supervise" unicode="&#59209;" d="M1004.983 660.48c-0.549 14.446-9.509 27.429-23.04 32.731 0 0-423.68 168.96-426.24 170.058-8.777 3.474-18.469 3.474-27.063 0L102.4 693.21c-13.531-5.302-22.491-18.285-23.04-32.731-0.549-14.629-10.971-358.4 62.537-499.749 75.886-145.737 375.406-251.977 388.206-256.365 3.84-1.28 8.046-2.012 12.068-2.012s8.229 0.732 12.069 2.012c12.8 4.388 312.32 110.628 388.023 256.365 73.691 141.349 63.268 485.12 62.72 499.749zM800.366 337.73699999999997H693.943l-34.377 89.6-118.309-265.143-90.331 194.926-39.132-98.56H283.977v73.143h78.08l83.566 210.468 94.171-203.337L664.503 618.24l79.543-207.36h56.137v-73.143z"  horiz-adv-x="1024" />
      
      <glyph glyph-name="us-supervise-map" unicode="&#59202;" d="M834.56 337.91999999999996h-158.0544a1590.6816 1590.6816 0 0 0-129.9456-169.1136L512 130.55999999999995l-34.56 38.2464A1590.6816 1590.6816 0 0 0 347.4944 337.91999999999996H189.44l-115.7632-347.3408A51.2 51.2 0 0 1 122.2144-76.79999999999995h779.5712a51.2 51.2 0 0 1 48.5376 67.3792L834.56 337.91999999999996z m-92.16 276.48a230.4 230.4 0 1 1-460.8 0c0-157.5936 230.4-414.72 230.4-414.72s230.4 257.1264 230.4 414.72z m-322.56 0a92.16 92.16 0 1 0 184.32 0 92.16 92.16 0 0 0-184.32 0z"  horiz-adv-x="1024" />
      
      <glyph glyph-name="us-supervise-iot" unicode="&#59203;" d="M722.6368 31.590400000000045h-85.504l-9.9328 18.2272h-230.4l-9.8816-18.2272H301.3632a29.2864 29.2864 0 0 1-29.952-28.6208c0-15.7696 13.312-28.5696 29.952-28.5696h421.2736c16.5888 0 30.0032 12.8 30.0032 28.5696a29.3376 29.3376 0 0 1-30.0032 28.6208zM896.0512 793.6h-768C78.336 793.6 51.2 765.44 51.2 718.1312v-555.2128c0-47.36 27.1872-75.3152 76.8-75.3152h768c49.6128 0 76.8 27.9552 76.8 75.4176V718.1312c0 47.2576-27.1872 75.4176-76.8 75.4688z m-144.2304-305.152a40.448 40.448 0 0 0-1.536-1.8432l-161.3312-178.8416a37.0176 37.0176 0 0 0-50.432-3.072L421.4784 403.968l-90.4192-91.4944a39.6288 39.6288 0 0 0-54.0672-1.024 33.1264 33.1264 0 0 0-0.7168 48.64L398.336 480.512a35.072 35.072 0 0 0 47.2576 0.8704l115.712-104.0896 132.9664 148.4288a38.912 38.912 0 0 0 52.0192 4.096 29.2352 29.2352 0 0 0 5.4784-41.3696z"  horiz-adv-x="1024" />
      
      <glyph glyph-name="us-supervise-stat-query" unicode="&#59204;" d="M912.3328-7.3215999999999894L814.08 91.75040000000001a212.5824 212.5824 0 0 1-61.5936 294.144 212.3776 212.3776 0 0 1-294.0416-61.5936 212.5824 212.5824 0 0 1 178.2272-328.704 211.456 211.456 0 0 1 117.248 35.7888l98.304-99.0208c12.288-12.2368 32.256-12.2368 44.4416 0l15.7696 15.872a31.8464 31.8464 0 0 1 0 44.7488l-0.1024-0.3072z m-160.8704 161.9456c-14.848-31.232-41.5232-55.296-74.24-66.56a101.376 101.376 0 0 0-40.96-7.1168 129.5872 129.5872 0 1 0 127.744 131.3792 129.024 129.024 0 0 0-12.7488-57.8048l0.2048 0.1024z m-392.704 15.0016H254.7712a32.768 32.768 0 0 0 0 65.3312h102.4c2.56 30.0544 10.0864 59.4944 22.016 87.04H254.8224a32.768 32.768 0 0 0 0 65.3824h163.84a278.528 278.528 0 0 0 121.9584 87.04H254.8224a32.6144 32.6144 0 1 0 0 65.3312h499.3024c18.0224 0 32.768-14.6432 32.6144-32.768a32.6144 32.6144 0 0 0-32.6144-32.5632h-24.4736a280.7808 280.7808 0 0 0 176.7936-198.144V745.6768A98.9696 98.9696 0 0 1 808.1408 844.8H200.6016A98.9184 98.9184 0 0 1 102.4 745.8304V38.912000000000035c0-54.4256 43.9296-98.6624 98.304-98.9696h356.3008a280.8832 280.8832 0 0 0-198.1952 229.632zM254.7712 692.1216h499.4048a32.768 32.768 0 0 0 0-65.3312H254.72a32.768 32.768 0 0 0 0 65.3312z"  horiz-adv-x="1024" />
      
      <glyph glyph-name="us-supervise-workbench" unicode="&#59205;" d="M265.5232 844.8a214.3232 214.3232 0 1 1 0-428.6464h182.1696a32.1536 32.1536 0 0 1 32.1536 32.1536V630.4768A214.3232 214.3232 0 0 1 265.5232 844.8z m0-921.6a214.3232 214.3232 0 0 0 0 428.6464h182.1696c17.7664 0 32.1536-14.3872 32.1536-32.1536v-182.1696A214.3232 214.3232 0 0 0 265.5232-76.79999999999995z m492.9536 921.6a214.3232 214.3232 0 0 0 0-428.6464h-182.1696a32.1536 32.1536 0 0 0-32.1536 32.1536V630.4768A214.3232 214.3232 0 0 0 758.4768 844.8z m0-921.6a214.3232 214.3232 0 0 1 0 428.6464h-182.1696a32.1536 32.1536 0 0 1-32.1536-32.1536v-182.1696A214.3232 214.3232 0 0 1 758.4768-76.79999999999995z"  horiz-adv-x="1024" />
      
      <glyph glyph-name="us-supervise-record" unicode="&#59206;" d="M885.4016 763.904c20.0704 0 36.7616-17.664 36.1984-37.5808v-764.928c0-33.6384-18.944-38.1952-35.072-38.1952H139.1104A37.12 37.12 0 0 0 102.4-39.2192V725.7088c0 21.1456 16.6912 37.632 36.7104 37.632H274.944v-76.9024c0-17.664 14.4384-32.4608 31.744-32.4608h411.2384c17.2032 0 31.744 14.2336 31.744 32.4608V763.904zM367.2576 234.75199999999995H295.0144a37.7344 37.7344 0 0 1-37.2736-38.144v-45.568c0-21.0944 16.6912-38.144 37.2736-38.144h72.3456a37.7344 37.7344 0 0 1 37.2736 38.144v45.568a37.7344 37.7344 0 0 1-37.2736 38.144z m364.032-30.208H511.3856c-15.0016 0-27.2896-15.36-27.2896-30.72s12.288-30.72 27.2896-30.72h220.3648c15.0528 0 26.7264 15.36 26.7264 30.72s-12.288 30.72-27.2896 30.72z m-364.032 281.3952H295.0144a37.7344 37.7344 0 0 1-37.2736-38.144v-45.568c0-21.0944 16.6912-38.144 37.2736-38.144h72.3456a37.7344 37.7344 0 0 1 37.2736 38.144v45.568a37.7344 37.7344 0 0 1-37.2736 38.144z m364.032-34.1504H511.3856c-15.0016 0-27.2896-15.36-27.2896-30.72 0-15.4112 12.288-30.8224 27.2896-30.8224h220.3648c15.0528 0 26.7264 15.36 26.7264 30.7712 0 15.36-12.288 30.72-27.2896 30.72zM676.6592 844.8a23.552 23.552 0 0 0 22.8352-23.3472v-95.744a23.552 23.552 0 0 0-22.8352-23.296H347.8016v-1.1264a23.552 23.552 0 0 0-22.784 23.3472v96.768A23.552 23.552 0 0 0 347.8016 844.8h328.9088z"  horiz-adv-x="1024" />
      
      <glyph glyph-name="us-supervise-risk-list" unicode="&#59207;" d="M788.992-25.600000000000023c-184.6272 1.1264-369.152 1.1264-553.8304 0-184.576-0.9216-230.2464 76.544-137.0624 232.2944A45389.2096 45389.2096 0 0 1 374.9376 675.84c91.392 157.0304 182.784 157.0304 274.1248 0a50765.7216 50765.7216 0 0 1 276.8384-469.1456c93.184-156.0064 47.5136-233.4208-136.96-232.2944zM512.2048 599.6544a42.3936 42.3936 0 0 1-43.8272-40.7552l22.016-289.6384a31.6928 31.6928 0 0 1 21.9136-35.9424 31.6928 31.6928 0 0 1 21.9648 35.9424l21.9648 289.6384a41.7792 41.7792 0 0 1-13.4656 29.3888 43.008 43.008 0 0 1-30.5664 11.3664z m0.2048-430.9504h-0.3584a43.52 43.52 0 0 1-40.6528-43.1104c0-22.6304 17.7152-41.472 40.6528-43.1104h0.3584a43.52 43.52 0 0 1 40.6528 43.1104 43.52 43.52 0 0 1-40.6528 43.1104z"  horiz-adv-x="1024" />
      
      <glyph glyph-name="us-supervise-alarm" unicode="&#59208;" d="M512.2048 614.4a276.48 276.48 0 0 0 276.48-276.48v-230.4a46.08 46.08 0 0 0-46.08-46.08h-460.8a46.08 46.08 0 0 0-46.08 46.08v230.4a276.48 276.48 0 0 0 276.48 276.48z m0-437.76a161.28 161.28 0 1 1 0 322.56 161.28 161.28 0 0 1 0-322.56z m0 46.08a115.2 115.2 0 1 0 0 230.4 115.2 115.2 0 0 0 0-230.4z m-322.56-207.36h645.12a46.08 46.08 0 0 0 0-92.16h-645.12a46.08 46.08 0 1 0 0 92.16z m322.56 829.44a46.08 46.08 0 0 0 46.08-46.08v-46.08a46.08 46.08 0 0 0-92.16 0v46.08a46.08 46.08 0 0 0 46.08 46.08z m284.416-92.3648a46.08 46.08 0 0 0 10.1376-64.4096l-27.0336-37.3248a46.08 46.08 0 0 0-74.5472 54.2208l27.0848 37.3248a46.08 46.08 0 0 0 64.3584 10.1376z m173.9776-241.9712a46.08 46.08 0 0 0-29.5936-58.0608l-43.776-14.2848a46.08 46.08 0 1 0-28.5184 87.7056l43.8272 14.2336a46.08 46.08 0 0 0 58.0608-29.5424z m-917.1456 0a46.08 46.08 0 0 0 58.0608 29.5936l43.8272-14.2848a46.08 46.08 0 1 0-28.4672-87.552l-43.776 14.1824a46.08 46.08 0 0 0-29.696 58.112zM227.84 752.4864a46.08 46.08 0 0 0 64.3584-10.24l27.0848-37.2736A46.08 46.08 0 1 0 244.736 650.752l-27.136 37.2736a46.08 46.08 0 0 0 10.24 64.3584z"  horiz-adv-x="1024" />
      
      </font>
</defs>
</svg>
